<svg width="1213" height="174" viewBox="0 0 1213 174" fill="none" xmlns="http://www.w3.org/2000/svg">
<path d="M86.1039 20.976L86.7759 7.44C88.6959 6.352 91.0959 5.456 93.9759 4.752C96.9199 3.984 100.152 3.6 103.672 3.6C111.096 3.6 116.472 5.168 119.8 8.304C123.128 11.44 124.792 15.376 124.792 20.112C124.792 24.528 122.808 28.816 118.84 32.976C114.872 37.136 109.176 41.936 101.752 47.376C100.344 48.4 98.7119 49.648 96.8559 51.12C95.0639 52.528 93.3039 53.968 91.5759 55.44H126.52V66H84.6639V58.224C89.3999 53.616 93.7839 49.232 97.8159 45.072C102.488 40.272 105.944 36.016 108.184 32.304C110.424 28.528 111.544 24.56 111.544 20.4C111.544 16.176 110.744 12.784 109.144 10.224C107.544 7.664 105.208 6.384 102.136 6.384C100.088 6.384 98.2639 6.864 96.6639 7.824C95.1279 8.784 93.8479 10.416 92.8239 12.72L89.0799 20.976H86.1039ZM154.295 67.344C150.519 67.344 146.967 66.288 143.639 64.176C140.311 62 137.623 58.576 135.575 53.904C133.527 49.232 132.503 43.12 132.503 35.568C132.503 27.952 133.527 21.808 135.575 17.136C137.623 12.464 140.311 9.04 143.639 6.86399C146.967 4.688 150.519 3.6 154.295 3.6C158.071 3.6 161.623 4.688 164.951 6.86399C168.279 9.04 170.967 12.464 173.015 17.136C175.063 21.808 176.087 27.952 176.087 35.568C176.087 43.12 175.063 49.232 173.015 53.904C170.967 58.576 168.279 62 164.951 64.176C161.623 66.288 158.071 67.344 154.295 67.344ZM154.295 64.656C155.959 64.656 157.367 64.24 158.519 63.408C159.671 62.576 160.599 61.136 161.303 59.088C162.071 56.976 162.615 54.032 162.935 50.256C163.319 46.416 163.511 41.52 163.511 35.568C163.511 29.552 163.319 24.656 162.935 20.88C162.615 17.04 162.071 14.064 161.303 11.952C160.599 9.84 159.671 8.368 158.519 7.536C157.367 6.704 155.959 6.288 154.295 6.288C152.695 6.288 151.287 6.704 150.071 7.536C148.919 8.304 147.991 9.744 147.287 11.856C146.583 13.968 146.039 16.944 145.655 20.784C145.335 24.624 145.175 29.552 145.175 35.568C145.175 41.52 145.335 46.416 145.655 50.256C146.039 54.032 146.583 56.976 147.287 59.088C147.991 61.2 148.919 62.672 150.071 63.504C151.287 64.272 152.695 64.656 154.295 64.656ZM184.635 20.976L185.307 7.44C187.227 6.352 189.627 5.456 192.507 4.752C195.451 3.984 198.683 3.6 202.203 3.6C209.627 3.6 215.003 5.168 218.331 8.304C221.659 11.44 223.323 15.376 223.323 20.112C223.323 24.528 221.339 28.816 217.371 32.976C213.403 37.136 207.707 41.936 200.283 47.376C198.875 48.4 197.243 49.648 195.387 51.12C193.595 52.528 191.835 53.968 190.107 55.44H225.051V66H183.195V58.224C187.931 53.616 192.315 49.232 196.347 45.072C201.019 40.272 204.475 36.016 206.715 32.304C208.955 28.528 210.075 24.56 210.075 20.4C210.075 16.176 209.275 12.784 207.675 10.224C206.075 7.664 203.739 6.384 200.667 6.384C198.619 6.384 196.795 6.864 195.195 7.824C193.659 8.784 192.379 10.416 191.355 12.72L187.611 20.976H184.635ZM252.058 67.344C244.378 67.344 238.522 65.872 234.49 62.928L235.066 51.216H237.562L241.306 58.32C242.458 60.496 243.898 62.096 245.626 63.12C247.354 64.144 249.338 64.656 251.578 64.656C255.226 64.656 258.01 63.312 259.93 60.624C261.914 57.872 262.906 53.84 262.906 48.528C262.906 38.48 258.81 33.456 250.618 33.456C249.018 33.456 247.354 33.648 245.626 34.032C243.898 34.416 242.298 34.96 240.826 35.664L238.81 34.512L240.922 4.944H274.33V15.504H243.706L242.458 31.536C243.93 30.64 245.754 29.84 247.93 29.136C250.106 28.432 252.41 28.08 254.842 28.08C261.242 28.08 266.458 29.712 270.49 32.976C274.522 36.24 276.538 41.008 276.538 47.28C276.538 51.568 275.482 55.216 273.37 58.224C271.258 61.168 268.346 63.44 264.634 65.04C260.986 66.576 256.794 67.344 252.058 67.344ZM301.406 66V63.984L303.998 63.216C305.342 62.832 306.366 62.256 307.07 61.488C307.838 60.72 308.446 59.664 308.894 58.32L328.286 2.256H336.254L355.55 58.704C356.062 60.112 356.638 61.2 357.278 61.968C357.918 62.672 358.942 63.248 360.35 63.696L361.79 64.08V66H337.406V64.08L339.038 63.6C340.446 63.152 341.278 62.448 341.534 61.488C341.854 60.528 341.79 59.344 341.342 57.936L337.31 45.552H316.094L311.966 57.744C311.518 59.152 311.39 60.304 311.582 61.2C311.774 62.096 312.574 62.8 313.982 63.312L316.094 63.984V66H301.406ZM317.054 42.768H336.446L327.038 13.872L317.054 42.768ZM364.817 66V63.984L366.737 63.504C368.017 63.12 368.849 62.544 369.233 61.776C369.617 61.008 369.809 59.952 369.809 58.608C369.873 54.96 369.905 51.28 369.905 47.568C369.905 43.792 369.905 40.016 369.905 36.24V32.304C369.905 28.592 369.905 24.88 369.905 21.168C369.905 17.456 369.873 13.744 369.809 10.032C369.809 8.688 369.585 7.664 369.137 6.96C368.753 6.192 367.921 5.584 366.641 5.136L364.817 4.56V2.544H387.953C397.297 2.544 404.081 4.304 408.305 7.824C412.593 11.28 414.737 15.856 414.737 21.552C414.737 25.136 413.841 28.464 412.049 31.536C410.321 34.544 407.441 36.944 403.409 38.736C399.377 40.528 393.937 41.424 387.089 41.424H383.633C383.633 44.112 383.633 46.896 383.633 49.776C383.633 52.592 383.665 55.472 383.729 58.416C383.729 61.04 384.913 62.64 387.281 63.216L390.161 63.984V66H364.817ZM383.633 38.64H387.665C390.865 38.64 393.457 38.16 395.441 37.2C397.489 36.176 398.993 34.448 399.953 32.016C400.977 29.584 401.489 26.224 401.489 21.936C401.489 17.648 400.945 14.32 399.857 11.952C398.833 9.52 397.265 7.824 395.153 6.86399C393.041 5.84 390.417 5.328 387.281 5.328H383.729C383.665 9.744 383.633 14.224 383.633 18.768C383.633 23.248 383.633 27.76 383.633 32.304V38.64ZM417.692 66V63.984L419.612 63.312C420.764 62.992 421.564 62.448 422.012 61.68C422.46 60.848 422.716 59.728 422.78 58.32V10.032C422.716 8.688 422.492 7.664 422.108 6.96C421.724 6.192 420.924 5.616 419.708 5.232L417.692 4.56V2.544H463.388L464.06 17.904H461.372L457.532 9.264C457.02 8.048 456.444 7.12 455.804 6.48C455.164 5.776 454.204 5.424 452.924 5.424H436.604C436.54 9.392 436.508 13.488 436.508 17.712C436.508 21.872 436.508 26.576 436.508 31.824H446.012C447.292 31.824 448.252 31.504 448.892 30.864C449.596 30.16 450.236 29.232 450.812 28.08L452.444 24.432H454.556V42.192H452.444L450.716 38.544C450.204 37.392 449.628 36.464 448.988 35.76C448.348 35.056 447.388 34.704 446.108 34.704H436.508C436.508 39.312 436.508 43.28 436.508 46.608C436.508 49.936 436.508 52.912 436.508 55.536C436.572 58.096 436.604 60.624 436.604 63.12H455.036C456.316 63.12 457.308 62.8 458.012 62.16C458.716 61.456 459.292 60.496 459.74 59.28L463.292 50.64H465.98L465.308 66H417.692ZM502.743 67.632C496.535 67.632 490.935 66.352 485.943 63.792C480.951 61.232 476.983 57.456 474.039 52.464C471.159 47.472 469.719 41.392 469.719 34.224C469.719 28.848 470.583 24.08 472.311 19.92C474.103 15.76 476.535 12.272 479.607 9.456C482.743 6.576 486.327 4.432 490.359 3.024C494.391 1.552 498.679 0.815998 503.223 0.815998C506.743 0.815998 510.039 1.232 513.111 2.064C516.183 2.832 519.127 3.984 521.943 5.51999L522.327 18.096H519.735L515.703 10.512C515.063 9.232 514.359 8.08 513.591 7.056C512.887 6.032 511.959 5.296 510.807 4.848C509.207 4.08 507.319 3.696 505.143 3.696C501.367 3.696 497.911 4.656 494.775 6.576C491.703 8.496 489.239 11.696 487.383 16.176C485.527 20.592 484.599 26.64 484.599 34.32C484.599 41.936 485.463 47.984 487.191 52.464C488.983 56.944 491.383 60.144 494.391 62.064C497.399 63.92 500.791 64.848 504.567 64.848C506.295 64.848 507.703 64.72 508.791 64.464C509.879 64.208 510.967 63.856 512.055 63.408C513.335 62.896 514.327 62.16 515.031 61.2C515.735 60.176 516.343 59.024 516.855 57.744L520.503 49.008H523.095L522.711 62.832C519.959 64.368 516.919 65.552 513.591 66.384C510.263 67.216 506.647 67.632 502.743 67.632ZM581.681 67.632C575.473 67.632 569.873 66.352 564.881 63.792C559.889 61.232 555.921 57.456 552.977 52.464C550.097 47.472 548.657 41.392 548.657 34.224C548.657 28.848 549.521 24.08 551.249 19.92C553.041 15.76 555.473 12.272 558.545 9.456C561.681 6.576 565.265 4.432 569.297 3.024C573.329 1.552 577.617 0.815998 582.161 0.815998C585.681 0.815998 588.977 1.232 592.049 2.064C595.121 2.832 598.065 3.984 600.881 5.51999L601.265 18.096H598.673L594.641 10.512C594.001 9.232 593.297 8.08 592.529 7.056C591.825 6.032 590.897 5.296 589.745 4.848C588.145 4.08 586.257 3.696 584.081 3.696C580.305 3.696 576.849 4.656 573.713 6.576C570.641 8.496 568.177 11.696 566.321 16.176C564.465 20.592 563.537 26.64 563.537 34.32C563.537 41.936 564.401 47.984 566.129 52.464C567.921 56.944 570.321 60.144 573.329 62.064C576.337 63.92 579.729 64.848 583.505 64.848C585.233 64.848 586.641 64.72 587.729 64.464C588.817 64.208 589.905 63.856 590.993 63.408C592.273 62.896 593.265 62.16 593.969 61.2C594.673 60.176 595.281 59.024 595.793 57.744L599.441 49.008H602.033L601.649 62.832C598.897 64.368 595.857 65.552 592.529 66.384C589.201 67.216 585.585 67.632 581.681 67.632ZM606.692 66V63.984L608.612 63.312C609.764 62.992 610.564 62.448 611.012 61.68C611.46 60.848 611.716 59.728 611.78 58.32V10.032C611.716 8.688 611.492 7.664 611.108 6.96C610.724 6.192 609.924 5.616 608.708 5.232L606.692 4.56V2.544H652.388L653.06 17.904H650.372L646.532 9.264C646.02 8.048 645.444 7.12 644.804 6.48C644.164 5.776 643.204 5.424 641.924 5.424H625.604C625.54 9.392 625.508 13.488 625.508 17.712C625.508 21.872 625.508 26.576 625.508 31.824H635.012C636.292 31.824 637.252 31.504 637.892 30.864C638.596 30.16 639.236 29.232 639.812 28.08L641.444 24.432H643.556V42.192H641.444L639.716 38.544C639.204 37.392 638.628 36.464 637.988 35.76C637.348 35.056 636.388 34.704 635.108 34.704H625.508C625.508 39.312 625.508 43.28 625.508 46.608C625.508 49.936 625.508 52.912 625.508 55.536C625.572 58.096 625.604 60.624 625.604 63.12H644.036C645.316 63.12 646.308 62.8 647.012 62.16C647.716 61.456 648.292 60.496 648.74 59.28L652.292 50.64H654.98L654.308 66H606.692ZM688.863 67.632C684.959 67.632 681.215 66.928 677.631 65.52C674.047 64.112 670.815 62.032 667.935 59.28C665.119 56.464 662.879 52.976 661.215 48.816C659.551 44.656 658.719 39.792 658.719 34.224C658.719 28.784 659.551 23.984 661.215 19.824C662.879 15.664 665.119 12.176 667.935 9.36C670.815 6.544 674.047 4.432 677.631 3.024C681.279 1.552 685.023 0.815998 688.863 0.815998C692.703 0.815998 696.415 1.52 699.999 2.928C703.647 4.336 706.879 6.448 709.695 9.264C712.511 12.016 714.751 15.472 716.415 19.632C718.079 23.792 718.911 28.656 718.911 34.224C718.911 39.664 718.079 44.464 716.415 48.624C714.751 52.784 712.511 56.272 709.695 59.088C706.879 61.904 703.679 64.048 700.095 65.52C696.511 66.928 692.767 67.632 688.863 67.632ZM688.863 64.752C692.511 64.752 695.455 63.824 697.695 61.968C699.935 60.048 701.567 56.848 702.591 52.368C703.615 47.888 704.127 41.84 704.127 34.224C704.127 26.608 703.615 20.592 702.591 16.176C701.567 11.696 699.935 8.528 697.695 6.672C695.455 4.752 692.511 3.792 688.863 3.792C685.279 3.792 682.335 4.752 680.031 6.672C677.791 8.528 676.159 11.696 675.135 16.176C674.111 20.592 673.599 26.608 673.599 34.224C673.599 41.84 674.111 47.888 675.135 52.368C676.159 56.848 677.791 60.048 680.031 61.968C682.335 63.824 685.279 64.752 688.863 64.752ZM764.672 67.632C761.152 67.632 757.568 67.184 753.92 66.288C750.336 65.456 747.328 64.336 744.896 62.928L745.472 49.584H748.256L751.232 56.208C752.128 58.064 753.056 59.6 754.016 60.816C754.976 62.032 756.256 62.96 757.856 63.6C758.944 64.048 759.968 64.368 760.928 64.56C761.952 64.688 763.072 64.752 764.288 64.752C768.192 64.752 771.264 63.76 773.504 61.776C775.808 59.728 776.96 57.04 776.96 53.712C776.96 50.704 776.16 48.336 774.56 46.608C773.024 44.88 770.528 43.216 767.072 41.616L763.136 39.888C757.76 37.52 753.504 34.768 750.368 31.632C747.296 28.496 745.76 24.336 745.76 19.152C745.76 15.312 746.72 12.048 748.64 9.36C750.624 6.608 753.344 4.496 756.8 3.024C760.256 1.552 764.288 0.815998 768.896 0.815998C772.288 0.815998 775.456 1.264 778.4 2.16C781.408 3.056 784.032 4.272 786.272 5.808L785.6 17.712H782.816L779.264 10.512C778.24 8.4 777.248 6.896 776.288 6C775.392 5.04 774.272 4.432 772.928 4.17599C772.16 4.048 771.488 3.952 770.912 3.888C770.4 3.824 769.696 3.792 768.8 3.792C765.664 3.792 762.944 4.72 760.64 6.576C758.4 8.368 757.28 10.864 757.28 14.064C757.28 17.136 758.144 19.632 759.872 21.552C761.6 23.472 764.096 25.168 767.36 26.64L771.68 28.464C777.888 31.152 782.336 34.032 785.024 37.104C787.712 40.112 789.056 43.984 789.056 48.72C789.056 54.352 786.912 58.928 782.624 62.448C778.4 65.904 772.416 67.632 764.672 67.632ZM821.711 67.632C816.911 67.632 812.655 66.768 808.943 65.04C805.295 63.312 802.415 60.592 800.303 56.88C798.255 53.104 797.231 48.144 797.231 42V31.632C797.231 28.048 797.231 24.432 797.231 20.784C797.231 17.136 797.199 13.456 797.135 9.744C797.135 7.248 795.951 5.68 793.583 5.04L791.471 4.56V2.544H817.391V4.56L814.703 5.136C812.271 5.712 811.055 7.312 811.055 9.936C810.991 13.52 810.959 17.136 810.959 20.784C810.959 24.368 810.959 27.984 810.959 31.632V43.824C810.959 50.032 812.207 54.512 814.703 57.264C817.263 60.016 820.879 61.392 825.551 61.392C830.479 61.392 834.319 59.92 837.071 56.976C839.887 53.968 841.295 49.52 841.295 43.632V10.224C841.295 8.944 841.039 7.824 840.527 6.86399C840.015 5.904 839.119 5.296 837.839 5.04L835.535 4.56V2.544H850.319V4.56L847.631 5.136C846.415 5.392 845.583 5.96799 845.135 6.86399C844.687 7.75999 844.463 8.848 844.463 10.128V43.056C844.463 50.992 842.383 57.072 838.223 61.296C834.063 65.52 828.559 67.632 821.711 67.632ZM853.25 66V63.888L855.17 63.312C856.386 62.928 857.218 62.32 857.666 61.488C858.114 60.592 858.338 59.44 858.338 58.032V10.512C858.338 9.232 858.178 8.208 857.858 7.44C857.538 6.608 856.738 5.968 855.458 5.51999L853.25 4.65599V2.544H871.586L889.634 49.488L906.626 2.544H925.346V4.65599L923.81 5.136C922.594 5.52 921.762 6.128 921.314 6.96C920.866 7.728 920.642 8.752 920.642 10.032C920.578 13.744 920.546 17.456 920.546 21.168C920.546 24.816 920.546 28.528 920.546 32.304V36.24C920.546 39.952 920.546 43.664 920.546 47.376C920.546 51.088 920.578 54.768 920.642 58.416C920.642 59.76 920.802 60.784 921.122 61.488C921.442 62.192 922.21 62.768 923.426 63.216L925.346 63.888V66H902.018V63.888L904.13 63.216C905.346 62.768 906.082 62.192 906.338 61.488C906.658 60.72 906.818 59.696 906.818 58.416V37.584L907.01 11.856L887.426 66H882.05L861.41 12.432L861.794 34.32V58.128C861.794 59.536 861.986 60.656 862.37 61.488C862.754 62.32 863.554 62.896 864.77 63.216L866.69 63.888V66H853.25ZM929.563 66V63.888L931.483 63.312C932.699 62.928 933.531 62.32 933.979 61.488C934.427 60.592 934.651 59.44 934.651 58.032V10.512C934.651 9.232 934.491 8.208 934.171 7.44C933.851 6.608 933.051 5.968 931.771 5.51999L929.563 4.65599V2.544H947.899L965.947 49.488L982.939 2.544H1001.66V4.65599L1000.12 5.136C998.907 5.52 998.075 6.128 997.627 6.96C997.179 7.728 996.955 8.752 996.955 10.032C996.891 13.744 996.859 17.456 996.859 21.168C996.859 24.816 996.859 28.528 996.859 32.304V36.24C996.859 39.952 996.859 43.664 996.859 47.376C996.859 51.088 996.891 54.768 996.955 58.416C996.955 59.76 997.115 60.784 997.435 61.488C997.755 62.192 998.523 62.768 999.739 63.216L1001.66 63.888V66H978.331V63.888L980.443 63.216C981.659 62.768 982.395 62.192 982.651 61.488C982.971 60.72 983.131 59.696 983.131 58.416V37.584L983.323 11.856L963.739 66H958.363L937.723 12.432L938.107 34.32V58.128C938.107 59.536 938.299 60.656 938.683 61.488C939.067 62.32 939.867 62.896 941.083 63.216L943.003 63.888V66H929.563ZM1006.07 66V63.984L1007.99 63.408C1009.27 62.96 1010.1 62.384 1010.48 61.68C1010.93 60.912 1011.16 59.856 1011.16 58.512V10.032C1011.16 8.688 1010.93 7.664 1010.48 6.96C1010.1 6.192 1009.27 5.584 1007.99 5.136L1006.07 4.56V2.544H1030.07V4.56L1028.15 5.136C1026.93 5.584 1026.1 6.192 1025.65 6.96C1025.2 7.664 1024.98 8.688 1024.98 10.032V58.512C1024.98 59.856 1025.2 60.912 1025.65 61.68C1026.1 62.384 1026.93 62.96 1028.15 63.408L1030.07 63.984V66H1006.07ZM1047.43 66V63.984L1051.27 63.216C1053.96 62.64 1055.31 61.072 1055.31 58.512V32.304C1055.31 27.824 1055.31 23.344 1055.31 18.864C1055.31 14.384 1055.27 9.904 1055.21 5.424H1047.63C1045.58 5.424 1044.07 5.968 1043.11 7.056C1042.15 8.144 1041.19 9.68 1040.23 11.664L1036.87 18.768H1034.19L1034.67 2.544H1089.77L1090.25 18.768H1087.56L1084.2 11.664C1083.24 9.68 1082.28 8.144 1081.32 7.056C1080.36 5.968 1078.86 5.424 1076.81 5.424H1069.13V58.512C1069.13 61.136 1070.47 62.704 1073.16 63.216L1077.1 63.984V66H1047.43ZM1091.99 81.264L1091.13 79.248C1095.1 76.752 1097.56 73.008 1098.52 68.016L1095.55 66.576C1093.69 65.68 1092.28 64.56 1091.32 63.216C1090.36 61.808 1089.88 60.368 1089.88 58.896C1089.88 56.784 1090.59 54.992 1091.99 53.52C1093.47 52.048 1095.35 51.312 1097.66 51.312C1100.03 51.312 1101.95 52.144 1103.42 53.808C1104.89 55.472 1105.63 57.872 1105.63 61.008C1105.63 64.464 1104.92 67.568 1103.51 70.32C1102.17 73.072 1100.44 75.376 1098.33 77.232C1096.28 79.088 1094.17 80.432 1091.99 81.264ZM0.458 172V169.984L2.282 169.504C3.562 169.12 4.394 168.544 4.778 167.776C5.162 167.008 5.386 165.952 5.45 164.608C5.514 160.96 5.546 157.28 5.546 153.568C5.546 149.792 5.546 146.016 5.546 142.24V138.304C5.546 134.592 5.546 130.88 5.546 127.168C5.546 123.456 5.514 119.744 5.45 116.032C5.386 114.688 5.194 113.664 4.874 112.96C4.554 112.192 3.786 111.616 2.57 111.232L0.458 110.56V108.544H46.634L47.306 124.768H44.714L39.722 115.264C39.082 114.048 38.378 113.12 37.61 112.48C36.842 111.776 35.722 111.424 34.25 111.424H19.466C19.402 115.712 19.338 120.128 19.274 124.672C19.274 129.152 19.274 133.632 19.274 138.112H28.49C29.962 138.112 31.05 137.792 31.754 137.152C32.458 136.448 33.13 135.488 33.77 134.272L35.69 130.72H37.802V148.288H35.69L33.77 144.832C33.066 143.552 32.362 142.592 31.658 141.952C31.018 141.248 29.962 140.896 28.49 140.896H19.274C19.274 145.12 19.274 149.184 19.274 153.088C19.274 156.928 19.306 160.704 19.37 164.416C19.37 167.04 20.554 168.672 22.922 169.312L25.802 169.984V172H0.458ZM66.0125 173.344C63.5165 173.344 61.2445 172.896 59.1965 172C57.1485 171.04 55.5165 169.504 54.3005 167.392C53.1485 165.216 52.6045 162.368 52.6685 158.848L52.9565 134.752C52.9565 133.344 52.7325 132.32 52.2845 131.68C51.8365 131.04 51.0365 130.592 49.8845 130.336L48.7325 129.952V128.224L65.1485 125.056L66.2045 126.112L65.7245 139.648V161.44C65.7245 163.616 66.3005 165.216 67.4525 166.24C68.6685 167.2 70.1725 167.68 71.9645 167.68C73.8205 167.68 75.4845 167.424 76.9565 166.912C78.4925 166.336 80.0605 165.504 81.6605 164.416L81.9485 134.848C81.9485 133.376 81.7245 132.352 81.2765 131.776C80.8925 131.2 80.1245 130.752 78.9725 130.432L77.9165 130.144V128.416L93.9485 125.056L95.0045 126.112L94.7165 139.648V164.8C94.7165 166.144 94.8765 167.232 95.1965 168.064C95.5805 168.832 96.3805 169.408 97.5965 169.792L98.8445 170.176V172L82.6205 172.96L81.7565 166.912C79.5805 168.768 77.2125 170.304 74.6525 171.52C72.0925 172.736 69.2125 173.344 66.0125 173.344ZM120.783 173.344C116.815 173.344 113.679 172.384 111.375 170.464C109.135 168.48 108.015 165.28 108.015 160.864C108.015 159.328 108.015 157.888 108.015 156.544C108.079 155.136 108.111 153.504 108.111 151.648V128.896H101.295V126.784L103.887 126.4C105.743 126.08 107.311 125.504 108.591 124.672C109.935 123.84 111.151 122.688 112.239 121.216L118.479 112.576H121.359L121.071 125.92H132.015V128.896H120.975V161.632C120.975 163.936 121.455 165.664 122.415 166.816C123.439 167.968 124.687 168.544 126.159 168.544C127.439 168.544 128.591 168.256 129.615 167.68C130.639 167.04 131.663 166.208 132.687 165.184L133.935 166.624C132.719 168.736 131.023 170.4 128.847 171.616C126.671 172.768 123.983 173.344 120.783 173.344ZM153.856 173.344C151.36 173.344 149.088 172.896 147.04 172C144.992 171.04 143.36 169.504 142.144 167.392C140.992 165.216 140.448 162.368 140.512 158.848L140.8 134.752C140.8 133.344 140.576 132.32 140.128 131.68C139.68 131.04 138.88 130.592 137.728 130.336L136.576 129.952V128.224L152.992 125.056L154.048 126.112L153.568 139.648V161.44C153.568 163.616 154.144 165.216 155.296 166.24C156.512 167.2 158.016 167.68 159.808 167.68C161.664 167.68 163.328 167.424 164.8 166.912C166.336 166.336 167.904 165.504 169.504 164.416L169.792 134.848C169.792 133.376 169.568 132.352 169.12 131.776C168.736 131.2 167.968 130.752 166.816 130.432L165.76 130.144V128.416L181.792 125.056L182.848 126.112L182.56 139.648V164.8C182.56 166.144 182.72 167.232 183.04 168.064C183.424 168.832 184.224 169.408 185.44 169.792L186.688 170.176V172L170.464 172.96L169.6 166.912C167.424 168.768 165.056 170.304 162.496 171.52C159.936 172.736 157.056 173.344 153.856 173.344ZM190.579 172V170.176L192.019 169.696C193.299 169.376 194.163 168.832 194.611 168.064C195.123 167.296 195.379 166.272 195.379 164.992V136.864C195.315 135.456 195.059 134.4 194.611 133.696C194.163 132.928 193.299 132.416 192.019 132.16L190.579 131.776V130.048L206.227 124.48L207.379 125.536L208.243 133.984V134.656C209.203 132.864 210.419 131.2 211.891 129.664C213.363 128.128 214.963 126.88 216.691 125.92C218.419 124.96 220.147 124.48 221.875 124.48C224.307 124.48 226.131 125.12 227.347 126.4C228.563 127.68 229.171 129.312 229.171 131.296C229.171 133.472 228.563 135.136 227.347 136.288C226.131 137.376 224.659 137.92 222.931 137.92C220.371 137.92 218.163 136.768 216.307 134.464L216.115 134.272C215.475 133.504 214.739 133.088 213.906 133.024C213.139 132.896 212.371 133.28 211.603 134.176C210.963 134.816 210.355 135.584 209.779 136.48C209.267 137.312 208.787 138.304 208.339 139.456V164.608C208.339 165.824 208.595 166.848 209.107 167.68C209.619 168.448 210.483 168.992 211.699 169.312L214.579 170.176V172H190.579ZM254.891 124.48C258.923 124.48 262.379 125.312 265.259 126.976C268.139 128.64 270.347 130.944 271.883 133.888C273.483 136.768 274.283 140.096 274.283 143.872C274.283 144.704 274.251 145.504 274.187 146.272C274.123 146.976 273.995 147.648 273.803 148.288H244.907C244.971 154.88 246.187 159.616 248.555 162.496C250.987 165.376 254.507 166.816 259.115 166.816C262.315 166.816 264.907 166.304 266.891 165.28C268.875 164.192 270.699 162.688 272.363 160.768L273.899 162.208C271.979 165.728 269.355 168.48 266.027 170.464C262.763 172.384 258.859 173.344 254.315 173.344C249.771 173.344 245.771 172.384 242.315 170.464C238.859 168.544 236.139 165.792 234.155 162.208C232.235 158.56 231.275 154.208 231.275 149.152C231.275 143.904 232.395 139.456 234.635 135.808C236.939 132.16 239.883 129.376 243.467 127.456C247.115 125.472 250.923 124.48 254.891 124.48ZM254.411 127.264C252.555 127.264 250.923 127.808 249.515 128.896C248.171 129.92 247.083 131.776 246.251 134.464C245.483 137.088 245.035 140.8 244.907 145.6H262.091C262.795 139.136 262.539 134.464 261.323 131.584C260.107 128.704 257.803 127.264 254.411 127.264ZM312.481 172V169.984L316.321 169.216C319.009 168.64 320.353 167.072 320.353 164.512V138.304C320.353 133.824 320.353 129.344 320.353 124.864C320.353 120.384 320.321 115.904 320.257 111.424H312.673C310.625 111.424 309.121 111.968 308.161 113.056C307.201 114.144 306.241 115.68 305.281 117.664L301.921 124.768H299.233L299.713 108.544H354.817L355.297 124.768H352.609L349.249 117.664C348.289 115.68 347.329 114.144 346.369 113.056C345.409 111.968 343.905 111.424 341.857 111.424H334.177V164.512C334.177 167.136 335.521 168.704 338.209 169.216L342.145 169.984V172H312.481ZM376.016 124.48C380.048 124.48 383.504 125.312 386.384 126.976C389.264 128.64 391.472 130.944 393.008 133.888C394.608 136.768 395.408 140.096 395.408 143.872C395.408 144.704 395.376 145.504 395.312 146.272C395.248 146.976 395.12 147.648 394.928 148.288H366.032C366.096 154.88 367.312 159.616 369.68 162.496C372.112 165.376 375.632 166.816 380.24 166.816C383.44 166.816 386.032 166.304 388.016 165.28C390 164.192 391.824 162.688 393.488 160.768L395.024 162.208C393.104 165.728 390.48 168.48 387.152 170.464C383.888 172.384 379.984 173.344 375.44 173.344C370.896 173.344 366.896 172.384 363.44 170.464C359.984 168.544 357.264 165.792 355.28 162.208C353.36 158.56 352.4 154.208 352.4 149.152C352.4 143.904 353.52 139.456 355.76 135.808C358.064 132.16 361.008 129.376 364.592 127.456C368.24 125.472 372.048 124.48 376.016 124.48ZM375.536 127.264C373.68 127.264 372.048 127.808 370.64 128.896C369.296 129.92 368.208 131.776 367.376 134.464C366.608 137.088 366.16 140.8 366.032 145.6H383.216C383.92 139.136 383.664 134.464 382.448 131.584C381.232 128.704 378.928 127.264 375.536 127.264ZM423.817 173.344C419.465 173.344 415.529 172.416 412.009 170.56C408.489 168.64 405.705 165.888 403.657 162.304C401.673 158.656 400.681 154.24 400.681 149.056C400.681 143.872 401.801 139.456 404.041 135.808C406.281 132.16 409.257 129.376 412.969 127.456C416.745 125.472 420.873 124.48 425.353 124.48C429.001 124.48 432.105 125.088 434.665 126.304C437.225 127.52 439.177 129.088 440.521 131.008C441.865 132.864 442.537 134.848 442.537 136.96C442.537 138.752 441.993 140.128 440.905 141.088C439.881 142.048 438.537 142.528 436.873 142.528C435.081 142.528 433.609 141.888 432.457 140.608C431.369 139.328 430.729 137.696 430.537 135.712C430.473 134.432 430.473 133.344 430.537 132.448C430.665 131.552 430.665 130.688 430.537 129.856C430.281 128.768 429.833 128.032 429.193 127.648C428.617 127.264 427.785 127.072 426.697 127.072C422.665 127.072 419.561 128.704 417.385 131.968C415.273 135.168 414.217 140.384 414.217 147.616C414.217 153.824 415.401 158.592 417.769 161.92C420.137 165.248 423.817 166.912 428.809 166.912C431.753 166.912 434.185 166.368 436.105 165.28C438.025 164.128 439.785 162.496 441.385 160.384L442.921 161.536C441.321 165.376 438.857 168.32 435.529 170.368C432.265 172.352 428.361 173.344 423.817 173.344ZM445.771 172V170.08L447.019 169.696C449.323 168.992 450.475 167.392 450.475 164.896V115.456C450.475 114.112 450.251 113.12 449.803 112.48C449.355 111.776 448.491 111.264 447.211 110.944L445.771 110.56V108.736L461.995 104.608L463.531 105.472L463.147 119.008V131.296C465.387 129.44 467.819 127.84 470.443 126.496C473.131 125.152 476.011 124.48 479.083 124.48C483.307 124.48 486.603 125.664 488.971 128.032C491.403 130.4 492.619 134.048 492.619 138.976V164.992C492.619 166.272 492.875 167.296 493.387 168.064C493.899 168.832 494.795 169.408 496.075 169.792L496.939 170.08V172H475.051V170.08L476.203 169.696C478.507 169.056 479.659 167.456 479.659 164.896V137.152C479.659 134.528 479.211 132.704 478.315 131.68C477.419 130.656 475.851 130.144 473.611 130.144C472.075 130.144 470.443 130.432 468.715 131.008C467.051 131.584 465.291 132.544 463.435 133.888V165.088C463.435 166.368 463.691 167.392 464.203 168.16C464.715 168.928 465.579 169.472 466.795 169.792L467.659 170.08V172H445.771ZM522.083 172V169.984L523.907 169.504C525.187 169.12 526.019 168.544 526.403 167.776C526.787 167.008 527.011 165.952 527.075 164.608C527.139 160.96 527.171 157.28 527.171 153.568C527.171 149.792 527.171 146.016 527.171 142.24V138.304C527.171 134.592 527.171 130.88 527.171 127.168C527.171 123.456 527.139 119.744 527.075 116.032C527.011 114.688 526.819 113.664 526.499 112.96C526.179 112.192 525.411 111.616 524.195 111.232L522.083 110.56V108.544H568.259L568.931 124.768H566.339L561.347 115.264C560.707 114.048 560.003 113.12 559.235 112.48C558.467 111.776 557.347 111.424 555.875 111.424H541.091C541.027 115.712 540.963 120.128 540.899 124.672C540.899 129.152 540.899 133.632 540.899 138.112H550.115C551.587 138.112 552.675 137.792 553.379 137.152C554.083 136.448 554.755 135.488 555.395 134.272L557.315 130.72H559.427V148.288H557.315L555.395 144.832C554.691 143.552 553.987 142.592 553.283 141.952C552.643 141.248 551.587 140.896 550.115 140.896H540.899C540.899 145.12 540.899 149.184 540.899 153.088C540.899 156.928 540.931 160.704 540.995 164.416C540.995 167.04 542.179 168.672 544.547 169.312L547.427 169.984V172H522.083ZM592.579 173.344C587.843 173.344 583.683 172.352 580.099 170.368C576.579 168.384 573.827 165.568 571.843 161.92C569.923 158.272 568.963 153.92 568.963 148.864C568.963 143.808 569.987 139.456 572.035 135.808C574.147 132.16 576.963 129.376 580.483 127.456C584.067 125.472 588.099 124.48 592.579 124.48C597.059 124.48 601.059 125.472 604.579 127.456C608.163 129.376 610.979 132.16 613.027 135.808C615.139 139.392 616.195 143.744 616.195 148.864C616.195 153.92 615.203 158.304 613.219 162.016C611.299 165.664 608.579 168.48 605.059 170.464C601.539 172.384 597.379 173.344 592.579 173.344ZM592.579 170.656C594.883 170.656 596.739 170.048 598.147 168.832C599.619 167.552 600.675 165.344 601.315 162.208C601.955 159.072 602.275 154.688 602.275 149.056C602.275 143.36 601.955 138.944 601.315 135.808C600.675 132.608 599.619 130.4 598.147 129.184C596.739 127.904 594.883 127.264 592.579 127.264C590.275 127.264 588.419 127.904 587.011 129.184C585.603 130.4 584.547 132.608 583.843 135.808C583.203 138.944 582.883 143.36 582.883 149.056C582.883 154.688 583.203 159.072 583.843 162.208C584.547 165.344 585.603 167.552 587.011 168.832C588.419 170.048 590.275 170.656 592.579 170.656ZM620.61 172V170.176L622.05 169.696C623.33 169.376 624.194 168.832 624.642 168.064C625.154 167.296 625.41 166.272 625.41 164.992V136.864C625.346 135.456 625.09 134.4 624.642 133.696C624.194 132.928 623.33 132.416 622.05 132.16L620.61 131.776V130.048L636.258 124.48L637.41 125.536L638.274 133.984V134.656C639.234 132.864 640.45 131.2 641.922 129.664C643.394 128.128 644.994 126.88 646.722 125.92C648.45 124.96 650.178 124.48 651.906 124.48C654.338 124.48 656.162 125.12 657.378 126.4C658.594 127.68 659.202 129.312 659.202 131.296C659.202 133.472 658.594 135.136 657.378 136.288C656.162 137.376 654.69 137.92 652.962 137.92C650.402 137.92 648.194 136.768 646.338 134.464L646.146 134.272C645.506 133.504 644.77 133.088 643.938 133.024C643.17 132.896 642.402 133.28 641.634 134.176C640.994 134.816 640.386 135.584 639.81 136.48C639.298 137.312 638.818 138.304 638.37 139.456V164.608C638.37 165.824 638.626 166.848 639.138 167.68C639.65 168.448 640.514 168.992 641.73 169.312L644.61 170.176V172H620.61ZM679.513 173.344C677.017 173.344 674.745 172.896 672.697 172C670.649 171.04 669.017 169.504 667.801 167.392C666.649 165.216 666.105 162.368 666.169 158.848L666.457 134.752C666.457 133.344 666.233 132.32 665.785 131.68C665.337 131.04 664.537 130.592 663.385 130.336L662.233 129.952V128.224L678.649 125.056L679.705 126.112L679.225 139.648V161.44C679.225 163.616 679.801 165.216 680.953 166.24C682.169 167.2 683.673 167.68 685.465 167.68C687.321 167.68 688.985 167.424 690.457 166.912C691.993 166.336 693.561 165.504 695.161 164.416L695.449 134.848C695.449 133.376 695.225 132.352 694.777 131.776C694.393 131.2 693.625 130.752 692.473 130.432L691.417 130.144V128.416L707.449 125.056L708.505 126.112L708.217 139.648V164.8C708.217 166.144 708.377 167.232 708.697 168.064C709.081 168.832 709.881 169.408 711.097 169.792L712.345 170.176V172L696.121 172.96L695.257 166.912C693.081 168.768 690.713 170.304 688.153 171.52C685.593 172.736 682.713 173.344 679.513 173.344ZM716.235 172V170.08L718.347 169.504C719.371 169.184 720.043 168.736 720.363 168.16C720.683 167.52 720.875 166.688 720.939 165.664V146.656C720.939 144.544 720.939 142.752 720.939 141.28C720.939 139.808 720.907 138.08 720.843 136.096C720.843 135.008 720.683 134.176 720.363 133.6C720.043 132.96 719.339 132.512 718.251 132.256L716.235 131.776V130.048L731.787 124.48L732.939 125.536L733.611 131.968C735.851 129.92 738.347 128.16 741.099 126.688C743.851 125.216 746.667 124.48 749.547 124.48C752.747 124.48 755.243 125.12 757.035 126.4C758.827 127.68 760.203 129.632 761.163 132.256C763.595 129.824 766.283 127.936 769.227 126.592C772.171 125.184 775.083 124.48 777.963 124.48C782.315 124.48 785.579 125.568 787.755 127.744C789.931 129.92 791.019 133.344 791.019 138.016V165.76C791.019 167.808 791.915 169.088 793.707 169.6L795.531 170.08V172H773.931V170.08L775.659 169.6C777.387 169.024 778.251 167.712 778.251 165.664V137.536C778.251 134.784 777.739 132.928 776.715 131.968C775.755 130.944 774.155 130.432 771.915 130.432C770.187 130.432 768.555 130.784 767.019 131.488C765.483 132.192 763.787 133.28 761.931 134.752C762.315 136.672 762.507 138.88 762.507 141.376V165.76C762.571 166.848 762.763 167.712 763.083 168.352C763.467 168.928 764.171 169.344 765.195 169.6L766.827 170.08V172H745.131V170.08L747.147 169.504C748.171 169.184 748.843 168.736 749.163 168.16C749.547 167.52 749.739 166.688 749.739 165.664V137.632C749.739 135.008 749.259 133.152 748.299 132.064C747.339 130.976 745.707 130.432 743.403 130.432C740.459 130.432 737.291 131.84 733.899 134.656V165.76C733.899 167.872 734.795 169.152 736.587 169.6L738.219 170.08V172H716.235ZM841.219 173.632C837.699 173.632 834.115 173.184 830.467 172.288C826.883 171.456 823.875 170.336 821.443 168.928L822.019 155.584H824.803L827.779 162.208C828.675 164.064 829.603 165.6 830.562 166.816C831.523 168.032 832.803 168.96 834.403 169.6C835.491 170.048 836.515 170.368 837.475 170.56C838.499 170.688 839.619 170.752 840.835 170.752C844.739 170.752 847.811 169.76 850.051 167.776C852.355 165.728 853.507 163.04 853.507 159.712C853.507 156.704 852.707 154.336 851.107 152.608C849.571 150.88 847.075 149.216 843.619 147.616L839.683 145.888C834.307 143.52 830.051 140.768 826.915 137.632C823.843 134.496 822.307 130.336 822.307 125.152C822.307 121.312 823.267 118.048 825.187 115.36C827.171 112.608 829.891 110.496 833.347 109.024C836.803 107.552 840.835 106.816 845.443 106.816C848.835 106.816 852.003 107.264 854.947 108.16C857.955 109.056 860.579 110.272 862.819 111.808L862.147 123.712H859.363L855.811 116.512C854.787 114.4 853.795 112.896 852.835 112C851.939 111.04 850.819 110.432 849.475 110.176C848.707 110.048 848.035 109.952 847.459 109.888C846.947 109.824 846.243 109.792 845.347 109.792C842.211 109.792 839.491 110.72 837.187 112.576C834.947 114.368 833.827 116.864 833.827 120.064C833.827 123.136 834.691 125.632 836.419 127.552C838.147 129.472 840.643 131.168 843.906 132.64L848.227 134.464C854.435 137.152 858.883 140.032 861.571 143.104C864.259 146.112 865.603 149.984 865.603 154.72C865.603 160.352 863.459 164.928 859.171 168.448C854.947 171.904 848.963 173.632 841.219 173.632ZM894.36 124.48C898.392 124.48 901.848 125.312 904.728 126.976C907.608 128.64 909.816 130.944 911.352 133.888C912.952 136.768 913.752 140.096 913.752 143.872C913.752 144.704 913.72 145.504 913.656 146.272C913.592 146.976 913.464 147.648 913.272 148.288H884.376C884.44 154.88 885.656 159.616 888.024 162.496C890.456 165.376 893.976 166.816 898.584 166.816C901.784 166.816 904.376 166.304 906.36 165.28C908.344 164.192 910.168 162.688 911.832 160.768L913.368 162.208C911.448 165.728 908.824 168.48 905.496 170.464C902.232 172.384 898.328 173.344 893.784 173.344C889.24 173.344 885.24 172.384 881.784 170.464C878.328 168.544 875.608 165.792 873.624 162.208C871.704 158.56 870.744 154.208 870.744 149.152C870.744 143.904 871.864 139.456 874.104 135.808C876.408 132.16 879.352 129.376 882.936 127.456C886.584 125.472 890.392 124.48 894.36 124.48ZM893.88 127.264C892.024 127.264 890.392 127.808 888.984 128.896C887.64 129.92 886.552 131.776 885.72 134.464C884.952 137.088 884.504 140.8 884.376 145.6H901.56C902.264 139.136 902.008 134.464 900.792 131.584C899.576 128.704 897.272 127.264 893.88 127.264ZM918.641 172V170.176L920.081 169.696C921.361 169.376 922.225 168.832 922.673 168.064C923.185 167.296 923.441 166.272 923.441 164.992V136.864C923.377 135.456 923.121 134.4 922.673 133.696C922.225 132.928 921.361 132.416 920.081 132.16L918.641 131.776V130.048L934.289 124.48L935.441 125.536L936.305 133.984V134.656C937.265 132.864 938.481 131.2 939.953 129.664C941.425 128.128 943.025 126.88 944.753 125.92C946.481 124.96 948.209 124.48 949.937 124.48C952.369 124.48 954.193 125.12 955.409 126.4C956.625 127.68 957.233 129.312 957.233 131.296C957.233 133.472 956.625 135.136 955.409 136.288C954.193 137.376 952.721 137.92 950.993 137.92C948.433 137.92 946.225 136.768 944.369 134.464L944.177 134.272C943.537 133.504 942.801 133.088 941.969 133.024C941.201 132.896 940.433 133.28 939.665 134.176C939.025 134.816 938.417 135.584 937.841 136.48C937.329 137.312 936.849 138.304 936.401 139.456V164.608C936.401 165.824 936.657 166.848 937.169 167.68C937.681 168.448 938.545 168.992 939.761 169.312L942.641 170.176V172H918.641ZM971.496 119.2C969.384 119.2 967.592 118.528 966.12 117.184C964.648 115.84 963.912 114.144 963.912 112.096C963.912 109.984 964.648 108.288 966.12 107.008C967.592 105.664 969.384 104.992 971.496 104.992C973.608 104.992 975.4 105.664 976.872 107.008C978.344 108.288 979.08 109.984 979.08 112.096C979.08 114.144 978.344 115.84 976.872 117.184C975.4 118.528 973.608 119.2 971.496 119.2ZM960.456 172V170.176L961.896 169.792C963.176 169.408 964.04 168.832 964.488 168.064C964.936 167.296 965.192 166.272 965.256 164.992V147.328C965.256 145.344 965.256 143.52 965.256 141.856C965.256 140.128 965.224 138.368 965.16 136.576C965.16 135.296 964.904 134.304 964.392 133.6C963.944 132.832 963.08 132.32 961.8 132.064L960.456 131.776V130.048L977.256 124.48L978.408 125.536L978.12 139.168V165.088C978.12 166.368 978.344 167.392 978.792 168.16C979.304 168.928 980.168 169.504 981.384 169.888L982.44 170.176V172H960.456ZM1010.7 124.48C1014.74 124.48 1018.19 125.312 1021.07 126.976C1023.95 128.64 1026.16 130.944 1027.7 133.888C1029.3 136.768 1030.1 140.096 1030.1 143.872C1030.1 144.704 1030.06 145.504 1030 146.272C1029.94 146.976 1029.81 147.648 1029.62 148.288H1000.72C1000.78 154.88 1002 159.616 1004.37 162.496C1006.8 165.376 1010.32 166.816 1014.93 166.816C1018.13 166.816 1020.72 166.304 1022.7 165.28C1024.69 164.192 1026.51 162.688 1028.18 160.768L1029.71 162.208C1027.79 165.728 1025.17 168.48 1021.84 170.464C1018.58 172.384 1014.67 173.344 1010.13 173.344C1005.58 173.344 1001.58 172.384 998.128 170.464C994.672 168.544 991.952 165.792 989.968 162.208C988.048 158.56 987.088 154.208 987.088 149.152C987.088 143.904 988.208 139.456 990.448 135.808C992.752 132.16 995.696 129.376 999.28 127.456C1002.93 125.472 1006.74 124.48 1010.7 124.48ZM1010.22 127.264C1008.37 127.264 1006.74 127.808 1005.33 128.896C1003.98 129.92 1002.9 131.776 1002.06 134.464C1001.3 137.088 1000.85 140.8 1000.72 145.6H1017.9C1018.61 139.136 1018.35 134.464 1017.14 131.584C1015.92 128.704 1013.62 127.264 1010.22 127.264ZM1051.59 173.344C1048.52 173.344 1045.74 172.992 1043.24 172.288C1040.81 171.648 1038.47 170.72 1036.23 169.504V158.176H1038.82L1041.7 163.648C1042.92 166.016 1044.3 167.776 1045.83 168.928C1047.43 170.08 1049.45 170.656 1051.88 170.656C1054.89 170.656 1057.29 170.016 1059.08 168.736C1060.87 167.392 1061.77 165.6 1061.77 163.36C1061.77 161.312 1061.1 159.648 1059.75 158.368C1058.41 157.088 1056.01 155.904 1052.55 154.816L1048.33 153.472C1044.55 152.32 1041.54 150.592 1039.3 148.288C1037.13 145.92 1036.04 142.976 1036.04 139.456C1036.04 136.704 1036.78 134.208 1038.25 131.968C1039.72 129.664 1041.86 127.84 1044.68 126.496C1047.5 125.152 1050.92 124.48 1054.95 124.48C1057.58 124.48 1059.98 124.8 1062.15 125.44C1064.39 126.016 1066.57 126.848 1068.68 127.936L1068.1 138.208H1065.61L1062.63 132.736C1061.61 130.688 1060.55 129.28 1059.46 128.512C1058.44 127.68 1056.84 127.264 1054.66 127.264C1052.36 127.264 1050.31 127.872 1048.52 129.088C1046.79 130.24 1045.93 131.872 1045.93 133.984C1045.93 135.968 1046.66 137.6 1048.14 138.88C1049.61 140.096 1051.98 141.248 1055.24 142.336L1059.37 143.584C1064.04 145.056 1067.37 147.008 1069.35 149.44C1071.34 151.872 1072.33 154.784 1072.33 158.176C1072.33 162.72 1070.5 166.4 1066.86 169.216C1063.27 171.968 1058.18 173.344 1051.59 173.344ZM1089.09 140.032C1086.85 140.032 1084.93 139.264 1083.33 137.728C1081.79 136.192 1081.02 134.336 1081.02 132.16C1081.02 129.92 1081.79 128 1083.33 126.4C1084.93 124.8 1086.85 124 1089.09 124C1091.33 124 1093.22 124.8 1094.75 126.4C1096.35 128 1097.15 129.92 1097.15 132.16C1097.15 134.336 1096.35 136.192 1094.75 137.728C1093.22 139.264 1091.33 140.032 1089.09 140.032ZM1089.09 173.344C1086.85 173.344 1084.93 172.576 1083.33 171.04C1081.79 169.504 1081.02 167.648 1081.02 165.472C1081.02 163.232 1081.79 161.312 1083.33 159.712C1084.93 158.112 1086.85 157.312 1089.09 157.312C1091.33 157.312 1093.22 158.112 1094.75 159.712C1096.35 161.312 1097.15 163.232 1097.15 165.472C1097.15 167.648 1096.35 169.504 1094.75 171.04C1093.22 172.576 1091.33 173.344 1089.09 173.344ZM1125.23 172V169.984L1127.83 169.216C1129.17 168.832 1130.19 168.256 1130.9 167.488C1131.67 166.72 1132.27 165.664 1132.72 164.32L1152.11 108.256H1160.08L1179.38 164.704C1179.89 166.112 1180.47 167.2 1181.11 167.968C1181.75 168.672 1182.77 169.248 1184.18 169.696L1185.62 170.08V172H1161.23V170.08L1162.87 169.6C1164.27 169.152 1165.11 168.448 1165.36 167.488C1165.68 166.528 1165.62 165.344 1165.17 163.936L1161.14 151.552H1139.92L1135.79 163.744C1135.35 165.152 1135.22 166.304 1135.41 167.2C1135.6 168.096 1136.4 168.8 1137.81 169.312L1139.92 169.984V172H1125.23ZM1140.88 148.768H1160.27L1150.87 119.872L1140.88 148.768ZM1188.65 172V169.984L1190.57 169.408C1191.85 168.96 1192.68 168.384 1193.06 167.68C1193.51 166.912 1193.73 165.856 1193.73 164.512V116.032C1193.73 114.688 1193.51 113.664 1193.06 112.96C1192.68 112.192 1191.85 111.584 1190.57 111.136L1188.65 110.56V108.544H1212.65V110.56L1210.73 111.136C1209.51 111.584 1208.68 112.192 1208.23 112.96C1207.78 113.664 1207.56 114.688 1207.56 116.032V164.512C1207.56 165.856 1207.78 166.912 1208.23 167.68C1208.68 168.384 1209.51 168.96 1210.73 169.408L1212.65 169.984V172H1188.65Z" fill="white"/>
</svg>
