<svg width="770" height="48" viewBox="0 0 770 48" fill="none" xmlns="http://www.w3.org/2000/svg">
<path d="M1.99978 13.232L2.50378 3.08C3.94378 2.264 5.74378 1.592 7.90378 1.064C10.1118 0.487998 12.5358 0.199997 15.1758 0.199997C20.7438 0.199997 24.7758 1.376 27.2718 3.728C29.7678 6.08 31.0158 9.032 31.0158 12.584C31.0158 15.896 29.5278 19.112 26.5518 22.232C23.5758 25.352 19.3038 28.952 13.7358 33.032C12.6798 33.8 11.4558 34.736 10.0638 35.84C8.71978 36.896 7.39978 37.976 6.10378 39.08H32.3118V47H0.919781V41.168C4.47178 37.712 7.75978 34.424 10.7838 31.304C14.2878 27.704 16.8798 24.512 18.5598 21.728C20.2398 18.896 21.0798 15.92 21.0798 12.8C21.0798 9.632 20.4798 7.088 19.2798 5.168C18.0798 3.248 16.3278 2.288 14.0238 2.288C12.4878 2.288 11.1198 2.648 9.91978 3.368C8.76778 4.088 7.80778 5.312 7.03978 7.04L4.23178 13.232H1.99978ZM53.1428 48.008C50.3108 48.008 47.6468 47.216 45.1508 45.632C42.6548 44 40.6388 41.432 39.1028 37.928C37.5668 34.424 36.7988 29.84 36.7988 24.176C36.7988 18.464 37.5668 13.856 39.1028 10.352C40.6388 6.848 42.6548 4.28 45.1508 2.648C47.6468 1.016 50.3108 0.199997 53.1428 0.199997C55.9748 0.199997 58.6388 1.016 61.1348 2.648C63.6308 4.28 65.6468 6.848 67.1828 10.352C68.7188 13.856 69.4868 18.464 69.4868 24.176C69.4868 29.84 68.7188 34.424 67.1828 37.928C65.6468 41.432 63.6308 44 61.1348 45.632C58.6388 47.216 55.9748 48.008 53.1428 48.008ZM53.1428 45.992C54.3908 45.992 55.4468 45.68 56.3108 45.056C57.1748 44.432 57.8708 43.352 58.3988 41.816C58.9748 40.232 59.3828 38.024 59.6228 35.192C59.9108 32.312 60.0548 28.64 60.0548 24.176C60.0548 19.664 59.9108 15.992 59.6228 13.16C59.3828 10.28 58.9748 8.048 58.3988 6.464C57.8708 4.88 57.1748 3.776 56.3108 3.152C55.4468 2.528 54.3908 2.216 53.1428 2.216C51.9428 2.216 50.8868 2.528 49.9748 3.152C49.1108 3.728 48.4148 4.808 47.8868 6.392C47.3588 7.976 46.9508 10.208 46.6628 13.088C46.4228 15.968 46.3028 19.664 46.3028 24.176C46.3028 28.64 46.4228 32.312 46.6628 35.192C46.9508 38.024 47.3588 40.232 47.8868 41.816C48.4148 43.4 49.1108 44.504 49.9748 45.128C50.8868 45.704 51.9428 45.992 53.1428 45.992ZM75.8982 13.232L76.4022 3.08C77.8422 2.264 79.6422 1.592 81.8022 1.064C84.0102 0.487998 86.4342 0.199997 89.0742 0.199997C94.6422 0.199997 98.6742 1.376 101.17 3.728C103.666 6.08 104.914 9.032 104.914 12.584C104.914 15.896 103.426 19.112 100.45 22.232C97.4742 25.352 93.2022 28.952 87.6342 33.032C86.5782 33.8 85.3542 34.736 83.9622 35.84C82.6182 36.896 81.2982 37.976 80.0022 39.08H106.21V47H74.8182V41.168C78.3702 37.712 81.6582 34.424 84.6822 31.304C88.1862 27.704 90.7782 24.512 92.4582 21.728C94.1382 18.896 94.9782 15.92 94.9782 12.8C94.9782 9.632 94.3782 7.088 93.1782 5.168C91.9782 3.248 90.2262 2.288 87.9222 2.288C86.3862 2.288 85.0182 2.648 83.8182 3.368C82.6662 4.088 81.7062 5.312 80.9382 7.04L78.1302 13.232H75.8982ZM126.465 48.008C120.705 48.008 116.313 46.904 113.289 44.696L113.721 35.912H115.593L118.401 41.24C119.265 42.872 120.345 44.072 121.641 44.84C122.937 45.608 124.425 45.992 126.105 45.992C128.841 45.992 130.929 44.984 132.369 42.968C133.857 40.904 134.601 37.88 134.601 33.896C134.601 26.36 131.529 22.592 125.385 22.592C124.185 22.592 122.937 22.736 121.641 23.024C120.345 23.312 119.145 23.72 118.041 24.248L116.529 23.384L118.113 1.208H143.169V9.128H120.201L119.265 21.152C120.369 20.48 121.737 19.88 123.369 19.352C125.001 18.824 126.729 18.56 128.553 18.56C133.353 18.56 137.265 19.784 140.289 22.232C143.313 24.68 144.825 28.256 144.825 32.96C144.825 36.176 144.033 38.912 142.449 41.168C140.865 43.376 138.681 45.08 135.897 46.28C133.161 47.432 130.017 48.008 126.465 48.008ZM157.952 48.008C156.272 48.008 154.832 47.432 153.632 46.28C152.48 45.128 151.904 43.736 151.904 42.104C151.904 40.424 152.48 38.984 153.632 37.784C154.832 36.584 156.272 35.984 157.952 35.984C159.632 35.984 161.048 36.584 162.2 37.784C163.4 38.984 164 40.424 164 42.104C164 43.736 163.4 45.128 162.2 46.28C161.048 47.432 159.632 48.008 157.952 48.008ZM186.647 47V45.632L189.455 44.768C191.279 44.192 192.215 42.992 192.263 41.168V6.896L186.287 7.688V6.032C188.975 5.552 191.591 4.856 194.135 3.944C196.727 2.984 199.175 1.832 201.479 0.487998L202.343 1.208L202.055 11.504V31.952C202.055 33.2 202.055 34.664 202.055 36.344C202.103 37.976 202.127 39.56 202.127 41.096C202.127 42.968 203.039 44.192 204.863 44.768L207.815 45.632V47H186.647ZM227.377 48.008C224.545 48.008 221.881 47.216 219.385 45.632C216.889 44 214.873 41.432 213.337 37.928C211.801 34.424 211.033 29.84 211.033 24.176C211.033 18.464 211.801 13.856 213.337 10.352C214.873 6.848 216.889 4.28 219.385 2.648C221.881 1.016 224.545 0.199997 227.377 0.199997C230.209 0.199997 232.873 1.016 235.369 2.648C237.865 4.28 239.881 6.848 241.417 10.352C242.953 13.856 243.721 18.464 243.721 24.176C243.721 29.84 242.953 34.424 241.417 37.928C239.881 41.432 237.865 44 235.369 45.632C232.873 47.216 230.209 48.008 227.377 48.008ZM227.377 45.992C228.625 45.992 229.681 45.68 230.545 45.056C231.409 44.432 232.105 43.352 232.633 41.816C233.209 40.232 233.617 38.024 233.857 35.192C234.145 32.312 234.289 28.64 234.289 24.176C234.289 19.664 234.145 15.992 233.857 13.16C233.617 10.28 233.209 8.048 232.633 6.464C232.105 4.88 231.409 3.776 230.545 3.152C229.681 2.528 228.625 2.216 227.377 2.216C226.177 2.216 225.121 2.528 224.209 3.152C223.345 3.728 222.649 4.808 222.121 6.392C221.593 7.976 221.185 10.208 220.897 13.088C220.657 15.968 220.537 19.664 220.537 24.176C220.537 28.64 220.657 32.312 220.897 35.192C221.185 38.024 221.593 40.232 222.121 41.816C222.649 43.4 223.345 44.504 224.209 45.128C225.121 45.704 226.177 45.992 227.377 45.992ZM256.109 48.008C254.429 48.008 252.989 47.432 251.789 46.28C250.637 45.128 250.061 43.736 250.061 42.104C250.061 40.424 250.637 38.984 251.789 37.784C252.989 36.584 254.429 35.984 256.109 35.984C257.789 35.984 259.205 36.584 260.357 37.784C261.557 38.984 262.157 40.424 262.157 42.104C262.157 43.736 261.557 45.128 260.357 46.28C259.205 47.432 257.789 48.008 256.109 48.008ZM287.539 13.232L288.043 3.08C289.483 2.264 291.283 1.592 293.443 1.064C295.651 0.487998 298.075 0.199997 300.715 0.199997C306.283 0.199997 310.315 1.376 312.811 3.728C315.307 6.08 316.555 9.032 316.555 12.584C316.555 15.896 315.067 19.112 312.091 22.232C309.115 25.352 304.843 28.952 299.275 33.032C298.219 33.8 296.995 34.736 295.603 35.84C294.259 36.896 292.939 37.976 291.643 39.08H317.851V47H286.459V41.168C290.011 37.712 293.299 34.424 296.323 31.304C299.827 27.704 302.419 24.512 304.099 21.728C305.779 18.896 306.619 15.92 306.619 12.8C306.619 9.632 306.019 7.088 304.819 5.168C303.619 3.248 301.867 2.288 299.563 2.288C298.027 2.288 296.659 2.648 295.459 3.368C294.307 4.088 293.347 5.312 292.579 7.04L289.771 13.232H287.539ZM322.842 36.92C322.842 34.424 323.778 32.264 325.65 30.44C327.522 28.568 329.946 26.984 332.922 25.688C326.922 22.52 323.922 18.248 323.922 12.872C323.922 10.232 324.57 7.976 325.866 6.104C327.21 4.232 329.034 2.792 331.338 1.784C333.642 0.727998 336.21 0.199997 339.042 0.199997C343.41 0.199997 346.722 1.232 348.978 3.296C351.234 5.312 352.362 7.736 352.362 10.568C352.362 12.68 351.57 14.696 349.986 16.616C348.402 18.488 346.338 20.048 343.794 21.296C347.394 23.024 350.082 25.016 351.858 27.272C353.682 29.48 354.594 32.144 354.594 35.264C354.594 37.808 353.922 40.04 352.578 41.96C351.234 43.88 349.338 45.368 346.89 46.424C344.442 47.48 341.586 48.008 338.322 48.008C333.378 48.008 329.562 47.048 326.874 45.128C324.186 43.16 322.842 40.424 322.842 36.92ZM332.058 9.272C332.058 10.616 332.322 11.888 332.85 13.088C333.378 14.24 334.338 15.416 335.73 16.616C337.122 17.768 339.162 19.016 341.85 20.36C343.434 18.68 344.466 17.096 344.946 15.608C345.426 14.12 345.666 12.584 345.666 11C345.666 8.024 345.042 5.84 343.794 4.448C342.546 3.008 340.866 2.288 338.754 2.288C336.93 2.288 335.346 2.912 334.002 4.16C332.706 5.36 332.058 7.064 332.058 9.272ZM330.402 36.344C330.402 39.176 331.17 41.504 332.706 43.328C334.242 45.104 336.234 45.992 338.682 45.992C341.082 45.992 342.906 45.224 344.154 43.688C345.402 42.152 346.026 40.208 346.026 37.856C346.026 36.32 345.69 34.976 345.018 33.824C344.346 32.624 343.194 31.448 341.562 30.296C339.978 29.144 337.746 27.92 334.866 26.624L334.65 26.552C333.018 28.04 331.89 29.48 331.266 30.872C330.69 32.264 330.402 34.088 330.402 36.344ZM390.412 47V45.632L393.22 44.768C395.044 44.192 395.98 42.992 396.028 41.168V6.896L390.052 7.688V6.032C392.74 5.552 395.356 4.856 397.9 3.944C400.492 2.984 402.94 1.832 405.244 0.487998L406.108 1.208L405.82 11.504V31.952C405.82 33.2 405.82 34.664 405.82 36.344C405.868 37.976 405.892 39.56 405.892 41.096C405.892 42.968 406.804 44.192 408.628 44.768L411.58 45.632V47H390.412ZM434.023 47V35.264H415.015V30.872L436.111 0.704H442.807V29.72H449.719V35.264H442.807V47H434.023ZM418.831 29.72H434.023V7.976L418.831 29.72ZM462.476 23.024C460.796 23.024 459.356 22.448 458.156 21.296C457.004 20.144 456.428 18.752 456.428 17.12C456.428 15.44 457.004 14 458.156 12.8C459.356 11.6 460.796 11 462.476 11C464.156 11 465.572 11.6 466.724 12.8C467.924 14 468.524 15.44 468.524 17.12C468.524 18.752 467.924 20.144 466.724 21.296C465.572 22.448 464.156 23.024 462.476 23.024ZM462.476 48.008C460.796 48.008 459.356 47.432 458.156 46.28C457.004 45.128 456.428 43.736 456.428 42.104C456.428 40.424 457.004 38.984 458.156 37.784C459.356 36.584 460.796 35.984 462.476 35.984C464.156 35.984 465.572 36.584 466.724 37.784C467.924 38.984 468.524 40.424 468.524 42.104C468.524 43.736 467.924 45.128 466.724 46.28C465.572 47.432 464.156 48.008 462.476 48.008ZM491.19 48.008C488.358 48.008 485.694 47.216 483.198 45.632C480.702 44 478.686 41.432 477.15 37.928C475.614 34.424 474.846 29.84 474.846 24.176C474.846 18.464 475.614 13.856 477.15 10.352C478.686 6.848 480.702 4.28 483.198 2.648C485.694 1.016 488.358 0.199997 491.19 0.199997C494.022 0.199997 496.686 1.016 499.182 2.648C501.678 4.28 503.694 6.848 505.23 10.352C506.766 13.856 507.534 18.464 507.534 24.176C507.534 29.84 506.766 34.424 505.23 37.928C503.694 41.432 501.678 44 499.182 45.632C496.686 47.216 494.022 48.008 491.19 48.008ZM491.19 45.992C492.438 45.992 493.494 45.68 494.358 45.056C495.222 44.432 495.918 43.352 496.446 41.816C497.022 40.232 497.43 38.024 497.67 35.192C497.958 32.312 498.102 28.64 498.102 24.176C498.102 19.664 497.958 15.992 497.67 13.16C497.43 10.28 497.022 8.048 496.446 6.464C495.918 4.88 495.222 3.776 494.358 3.152C493.494 2.528 492.438 2.216 491.19 2.216C489.99 2.216 488.934 2.528 488.022 3.152C487.158 3.728 486.462 4.808 485.934 6.392C485.406 7.976 484.998 10.208 484.71 13.088C484.47 15.968 484.35 19.664 484.35 24.176C484.35 28.64 484.47 32.312 484.71 35.192C484.998 38.024 485.406 40.232 485.934 41.816C486.462 43.4 487.158 44.504 488.022 45.128C488.934 45.704 489.99 45.992 491.19 45.992ZM527.049 48.008C524.217 48.008 521.553 47.216 519.057 45.632C516.561 44 514.545 41.432 513.009 37.928C511.473 34.424 510.705 29.84 510.705 24.176C510.705 18.464 511.473 13.856 513.009 10.352C514.545 6.848 516.561 4.28 519.057 2.648C521.553 1.016 524.217 0.199997 527.049 0.199997C529.881 0.199997 532.545 1.016 535.041 2.648C537.537 4.28 539.553 6.848 541.089 10.352C542.625 13.856 543.393 18.464 543.393 24.176C543.393 29.84 542.625 34.424 541.089 37.928C539.553 41.432 537.537 44 535.041 45.632C532.545 47.216 529.881 48.008 527.049 48.008ZM527.049 45.992C528.297 45.992 529.353 45.68 530.217 45.056C531.081 44.432 531.777 43.352 532.305 41.816C532.881 40.232 533.289 38.024 533.529 35.192C533.817 32.312 533.961 28.64 533.961 24.176C533.961 19.664 533.817 15.992 533.529 13.16C533.289 10.28 532.881 8.048 532.305 6.464C531.777 4.88 531.081 3.776 530.217 3.152C529.353 2.528 528.297 2.216 527.049 2.216C525.849 2.216 524.793 2.528 523.881 3.152C523.017 3.728 522.321 4.808 521.793 6.392C521.265 7.976 520.857 10.208 520.569 13.088C520.329 15.968 520.209 19.664 520.209 24.176C520.209 28.64 520.329 32.312 520.569 35.192C520.857 38.024 521.265 40.232 521.793 41.816C522.321 43.4 523.017 44.504 523.881 45.128C524.793 45.704 525.849 45.992 527.049 45.992ZM563.681 30.296V27.272H596.081V30.296H563.681ZM616.889 47V45.632L619.697 44.768C621.521 44.192 622.457 42.992 622.505 41.168V6.896L616.529 7.688V6.032C619.217 5.552 621.833 4.856 624.377 3.944C626.969 2.984 629.417 1.832 631.721 0.487998L632.585 1.208L632.297 11.504V31.952C632.297 33.2 632.297 34.664 632.297 36.344C632.345 37.976 632.369 39.56 632.369 41.096C632.369 42.968 633.281 44.192 635.105 44.768L638.057 45.632V47H616.889ZM658.987 48.008C653.899 48.008 649.795 46.304 646.675 42.896C643.555 39.488 641.995 34.688 641.995 28.496C641.995 23.6 643.219 19.136 645.667 15.104C648.163 11.024 651.667 7.664 656.179 5.024C660.691 2.384 665.971 0.775999 672.019 0.199997L672.235 1.856C666.427 3.104 661.963 5.336 658.843 8.552C655.723 11.768 653.683 15.992 652.723 21.224C654.067 20.36 655.555 19.712 657.187 19.28C658.819 18.8 660.523 18.56 662.299 18.56C665.131 18.56 667.507 19.16 669.427 20.36C671.347 21.56 672.787 23.192 673.747 25.256C674.707 27.32 675.187 29.648 675.187 32.24C675.187 35.6 674.395 38.456 672.811 40.808C671.227 43.16 669.187 44.96 666.691 46.208C664.243 47.408 661.675 48.008 658.987 48.008ZM652.003 29.936C652.003 35.648 652.555 39.752 653.659 42.248C654.763 44.744 656.467 45.992 658.771 45.992C660.979 45.992 662.635 44.984 663.739 42.968C664.843 40.952 665.395 37.64 665.395 33.032C665.395 28.76 664.843 25.784 663.739 24.104C662.683 22.424 660.955 21.584 658.555 21.584C656.347 21.584 654.307 22.088 652.435 23.096C652.147 25.208 652.003 27.488 652.003 29.936ZM688.32 23.024C686.64 23.024 685.2 22.448 684 21.296C682.848 20.144 682.272 18.752 682.272 17.12C682.272 15.44 682.848 14 684 12.8C685.2 11.6 686.64 11 688.32 11C690 11 691.416 11.6 692.568 12.8C693.768 14 694.368 15.44 694.368 17.12C694.368 18.752 693.768 20.144 692.568 21.296C691.416 22.448 690 23.024 688.32 23.024ZM688.32 48.008C686.64 48.008 685.2 47.432 684 46.28C682.848 45.128 682.272 43.736 682.272 42.104C682.272 40.424 682.848 38.984 684 37.784C685.2 36.584 686.64 35.984 688.32 35.984C690 35.984 691.416 36.584 692.568 37.784C693.768 38.984 694.368 40.424 694.368 42.104C694.368 43.736 693.768 45.128 692.568 46.28C691.416 47.432 690 48.008 688.32 48.008ZM717.033 48.008C714.201 48.008 711.537 47.216 709.041 45.632C706.545 44 704.529 41.432 702.993 37.928C701.457 34.424 700.689 29.84 700.689 24.176C700.689 18.464 701.457 13.856 702.993 10.352C704.529 6.848 706.545 4.28 709.041 2.648C711.537 1.016 714.201 0.199997 717.033 0.199997C719.865 0.199997 722.529 1.016 725.025 2.648C727.521 4.28 729.537 6.848 731.073 10.352C732.609 13.856 733.377 18.464 733.377 24.176C733.377 29.84 732.609 34.424 731.073 37.928C729.537 41.432 727.521 44 725.025 45.632C722.529 47.216 719.865 48.008 717.033 48.008ZM717.033 45.992C718.281 45.992 719.337 45.68 720.201 45.056C721.065 44.432 721.761 43.352 722.289 41.816C722.865 40.232 723.273 38.024 723.513 35.192C723.801 32.312 723.945 28.64 723.945 24.176C723.945 19.664 723.801 15.992 723.513 13.16C723.273 10.28 722.865 8.048 722.289 6.464C721.761 4.88 721.065 3.776 720.201 3.152C719.337 2.528 718.281 2.216 717.033 2.216C715.833 2.216 714.777 2.528 713.865 3.152C713.001 3.728 712.305 4.808 711.777 6.392C711.249 7.976 710.841 10.208 710.553 13.088C710.313 15.968 710.193 19.664 710.193 24.176C710.193 28.64 710.313 32.312 710.553 35.192C710.841 38.024 711.249 40.232 711.777 41.816C712.305 43.4 713.001 44.504 713.865 45.128C714.777 45.704 715.833 45.992 717.033 45.992ZM752.893 48.008C750.061 48.008 747.397 47.216 744.901 45.632C742.405 44 740.389 41.432 738.853 37.928C737.317 34.424 736.549 29.84 736.549 24.176C736.549 18.464 737.317 13.856 738.853 10.352C740.389 6.848 742.405 4.28 744.901 2.648C747.397 1.016 750.061 0.199997 752.893 0.199997C755.725 0.199997 758.389 1.016 760.885 2.648C763.381 4.28 765.397 6.848 766.933 10.352C768.469 13.856 769.237 18.464 769.237 24.176C769.237 29.84 768.469 34.424 766.933 37.928C765.397 41.432 763.381 44 760.885 45.632C758.389 47.216 755.725 48.008 752.893 48.008ZM752.893 45.992C754.141 45.992 755.197 45.68 756.061 45.056C756.925 44.432 757.621 43.352 758.149 41.816C758.725 40.232 759.133 38.024 759.373 35.192C759.661 32.312 759.805 28.64 759.805 24.176C759.805 19.664 759.661 15.992 759.373 13.16C759.133 10.28 758.725 8.048 758.149 6.464C757.621 4.88 756.925 3.776 756.061 3.152C755.197 2.528 754.141 2.216 752.893 2.216C751.693 2.216 750.637 2.528 749.725 3.152C748.861 3.728 748.165 4.808 747.637 6.392C747.109 7.976 746.701 10.208 746.413 13.088C746.173 15.968 746.053 19.664 746.053 24.176C746.053 28.64 746.173 32.312 746.413 35.192C746.701 38.024 747.109 40.232 747.637 41.816C748.165 43.4 748.861 44.504 749.725 45.128C750.637 45.704 751.693 45.992 752.893 45.992Z" fill="white"/>
</svg>
