<svg width="367" height="64" viewBox="0 0 367 64" fill="none" xmlns="http://www.w3.org/2000/svg">
<g clip-path="url(#clip0_3_9879)">
<path d="M313.491 51.8784V49.5384L319.551 43.6984C320.691 42.6384 321.251 41.5784 321.251 40.5584C321.251 39.8984 321.031 39.3584 320.571 38.9384C320.111 38.5184 319.531 38.2984 318.791 38.2984C317.411 38.2984 316.351 39.0784 315.591 40.6384L313.211 39.0584C313.451 38.5584 313.731 38.0984 314.071 37.6784C314.411 37.2584 314.791 36.8784 315.251 36.5184C315.711 36.1584 316.251 35.8984 316.891 35.6984C317.531 35.4984 318.211 35.3984 318.951 35.3984C320.571 35.3984 321.871 35.8784 322.871 36.8584C323.871 37.8384 324.351 39.0384 324.351 40.4584C324.351 41.3184 324.151 42.1384 323.731 42.9184C323.311 43.6984 322.651 44.5184 321.711 45.3984L317.691 49.1384H324.451V51.8584H313.491V51.8784Z" fill="white"/>
<path d="M333.134 52.2384C331.934 52.2384 330.834 51.8784 329.854 51.1384C328.874 50.4184 328.114 49.4184 327.574 48.1384C327.034 46.8584 326.754 45.4184 326.754 43.8384C326.754 42.2584 327.034 40.7984 327.554 39.5184C328.094 38.2384 328.834 37.2184 329.794 36.4984C330.754 35.7784 331.814 35.3984 333.014 35.3984C334.214 35.3984 335.334 35.7584 336.314 36.4984C337.294 37.2184 338.054 38.2184 338.614 39.4984C339.154 40.7784 339.434 42.2184 339.394 43.7984C339.394 45.3984 339.154 46.8384 338.614 48.1184C338.074 49.3984 337.334 50.4184 336.374 51.1384C335.414 51.8584 334.334 52.2384 333.134 52.2384ZM333.094 49.3184C334.074 49.3184 334.854 48.7984 335.454 47.7984C336.054 46.7784 336.354 45.4584 336.354 43.8184C336.354 42.1784 336.054 40.8384 335.434 39.8184C334.834 38.7984 334.014 38.2784 333.014 38.2784C332.014 38.2784 331.294 38.7984 330.714 39.8184C330.134 40.8384 329.834 42.1784 329.834 43.7984C329.834 45.4184 330.134 46.7784 330.734 47.7984C331.334 48.8184 332.134 49.3184 333.094 49.3184Z" fill="white"/>
<path d="M341.292 51.8784V49.5384L347.352 43.6984C348.492 42.6384 349.052 41.5784 349.052 40.5584C349.052 39.8984 348.832 39.3584 348.372 38.9384C347.912 38.5184 347.332 38.2984 346.592 38.2984C345.212 38.2984 344.152 39.0784 343.392 40.6384L341.012 39.0584C341.252 38.5584 341.532 38.0984 341.872 37.6784C342.212 37.2584 342.592 36.8784 343.052 36.5184C343.512 36.1584 344.052 35.8984 344.692 35.6984C345.332 35.4984 346.012 35.3984 346.752 35.3984C348.372 35.3984 349.672 35.8784 350.672 36.8584C351.672 37.8384 352.152 39.0384 352.152 40.4584C352.152 41.3184 351.952 42.1384 351.532 42.9184C351.112 43.6984 350.432 44.5184 349.512 45.3984L345.472 49.1384H352.232V51.8584H341.252L341.292 51.8784Z" fill="white"/>
<path d="M359.475 49.3183C360.375 49.3183 361.115 49.0783 361.635 48.5783C362.155 48.0983 362.415 47.4583 362.415 46.6783C362.415 45.8983 362.155 45.2583 361.655 44.7583C361.135 44.2383 360.415 43.9983 359.495 43.9983C358.395 43.9983 357.375 44.2983 356.395 44.8783L354.995 43.8983L356.295 35.7383H364.575V38.4583H358.795L358.255 41.7383C358.775 41.4983 359.395 41.3783 360.135 41.3783C361.795 41.3783 363.115 41.8783 364.075 42.8783C365.055 43.8783 365.535 45.1583 365.535 46.7383C365.535 48.3183 364.995 49.6583 363.915 50.6783C362.835 51.6983 361.375 52.2183 359.555 52.2183C358.315 52.2183 357.235 51.9783 356.295 51.4983C355.375 51.0183 354.615 50.3383 354.055 49.4783L356.295 47.4783C357.155 48.7183 358.235 49.3383 359.515 49.3383L359.475 49.3183Z" fill="white"/>
<path d="M240.194 14.0984L239.274 15.2184C237.994 14.2184 236.554 13.7184 234.934 13.7184C233.814 13.7184 232.774 14.0184 231.814 14.5984C230.854 15.1784 230.114 15.9784 229.554 16.9784C228.994 17.9784 228.714 19.0784 228.714 20.2584C228.714 21.4384 228.994 22.4984 229.554 23.4984C230.114 24.4784 230.894 25.2584 231.854 25.8384C232.834 26.4184 233.914 26.6984 235.094 26.6984C236.774 26.6984 238.174 26.2184 239.294 25.2784L240.174 26.2984C239.474 26.9184 238.694 27.3784 237.854 27.6584C237.014 27.9384 236.054 28.0784 234.974 28.0784C233.894 28.0784 232.894 27.8784 231.934 27.4584C230.974 27.0384 230.154 26.4984 229.474 25.7984C228.794 25.0984 228.254 24.2784 227.834 23.3184C227.434 22.3584 227.234 21.3384 227.234 20.2784C227.234 19.2184 227.434 18.1784 227.834 17.2184C228.234 16.2384 228.774 15.3984 229.474 14.6984C230.154 13.9984 230.974 13.4384 231.934 13.0184C232.874 12.5984 233.874 12.3984 234.914 12.3984C236.034 12.3984 237.014 12.5384 237.854 12.8184C238.694 13.0984 239.454 13.5384 240.174 14.1384L240.194 14.0984Z" fill="white"/>
<path d="M243.453 12.6016H252.773V13.9416H244.873V19.5216H252.253V20.8616H244.873V26.4616H252.913V27.8016H243.453V12.6216V12.6016Z" fill="white"/>
<path d="M263.032 12.3398C264.072 12.3398 265.072 12.5598 266.032 12.9598C266.972 13.3798 267.792 13.9398 268.492 14.6398C269.172 15.3398 269.732 16.1798 270.132 17.1598C270.532 18.1198 270.732 19.1598 270.732 20.2198C270.732 21.2798 270.532 22.2798 270.132 23.2598C269.732 24.2198 269.192 25.0598 268.492 25.7598C267.812 26.4598 266.992 27.0198 266.032 27.4198C265.092 27.8398 264.092 28.0398 263.032 28.0398C261.632 28.0398 260.372 27.6998 259.192 26.9998C258.012 26.2998 257.072 25.3598 256.392 24.1598C255.712 22.9598 255.352 21.6598 255.352 20.2398C255.352 19.1798 255.552 18.1398 255.952 17.1798C256.352 16.1998 256.892 15.3598 257.592 14.6598C258.272 13.9598 259.092 13.3998 260.052 12.9798C260.992 12.5598 261.992 12.3598 263.032 12.3598V12.3398ZM260.632 26.1598C261.392 26.4998 262.192 26.6798 263.032 26.6798C263.872 26.6798 264.672 26.5198 265.452 26.1598C266.212 25.8198 266.892 25.3598 267.432 24.7798C267.992 24.1998 268.432 23.5198 268.752 22.7198C269.092 21.9198 269.232 21.0998 269.232 20.2198C269.232 19.0398 268.952 17.9398 268.392 16.9398C267.832 15.9398 267.092 15.1398 266.132 14.5598C265.172 13.9798 264.132 13.6798 263.012 13.6798C262.172 13.6798 261.372 13.8598 260.612 14.1998C259.852 14.5398 259.192 14.9998 258.632 15.5998C258.072 16.1798 257.632 16.8798 257.292 17.6998C256.952 18.4998 256.812 19.3398 256.812 20.2198C256.812 21.0998 256.972 21.9198 257.292 22.7198C257.632 23.5198 258.052 24.1998 258.632 24.7798C259.192 25.3598 259.852 25.8198 260.612 26.1598H260.632Z" fill="white"/>
<path d="M290.271 14.5203L289.251 15.4803C288.891 14.9603 288.331 14.5403 287.611 14.1803C286.891 13.8203 286.111 13.6603 285.271 13.6603C284.191 13.6603 283.331 13.9003 282.671 14.3603C282.011 14.8203 281.691 15.4203 281.691 16.1803C281.691 16.6003 281.791 16.9603 281.991 17.2803C282.191 17.6003 282.471 17.8803 282.811 18.0803C283.151 18.3003 283.551 18.4803 283.991 18.6603C284.451 18.8403 284.911 19.0003 285.411 19.1403C285.911 19.3003 286.391 19.4603 286.891 19.6203C287.391 19.7803 287.871 19.9803 288.311 20.2203C288.751 20.4603 289.151 20.7203 289.491 21.0203C289.831 21.3203 290.111 21.7003 290.311 22.1603C290.511 22.6203 290.611 23.1403 290.611 23.7203C290.611 25.0203 290.131 26.0803 289.171 26.8603C288.211 27.6403 286.911 28.0403 285.271 28.0403C284.031 28.0403 282.931 27.8203 281.971 27.3603C281.031 26.9003 280.271 26.3003 279.691 25.5403L280.731 24.6003C281.271 25.2803 281.931 25.8003 282.711 26.1603C283.491 26.5203 284.351 26.7003 285.271 26.7003C286.471 26.7003 287.411 26.4403 288.111 25.9203C288.791 25.4003 289.131 24.7203 289.131 23.8603C289.131 23.2803 288.971 22.7603 288.651 22.3403C288.311 21.9203 287.891 21.5803 287.371 21.3403C286.851 21.1003 286.271 20.8603 285.631 20.6603C284.991 20.4603 284.371 20.2403 283.731 20.0203C283.091 19.8003 282.511 19.5403 281.991 19.2403C281.471 18.9403 281.051 18.5403 280.711 18.0203C280.371 17.5003 280.231 16.9003 280.231 16.2003C280.231 15.0403 280.691 14.1003 281.631 13.3803C282.571 12.6603 283.791 12.3203 285.311 12.3203C286.391 12.3203 287.371 12.5203 288.271 12.9403C289.151 13.3603 289.831 13.8803 290.271 14.5003V14.5203Z" fill="white"/>
<path d="M294.133 22.0816V12.6016H295.533V22.1216C295.533 23.4816 295.933 24.5816 296.713 25.4216C297.513 26.2616 298.553 26.6616 299.833 26.6616C301.113 26.6616 302.153 26.2416 302.953 25.4216C303.733 24.6016 304.133 23.5016 304.133 22.1416V12.6016H305.553V22.0816C305.553 23.8616 305.033 25.3016 303.973 26.4016C302.933 27.5016 301.533 28.0416 299.813 28.0416C298.093 28.0416 296.733 27.5016 295.693 26.4016C294.653 25.3016 294.133 23.8816 294.133 22.0816Z" fill="white"/>
<path d="M317.791 24.7016L311.631 14.9416V27.7816H310.211V12.6016H311.851L317.891 22.3216L323.911 12.6016H325.351V27.7816H323.931V14.9416L317.791 24.7016Z" fill="white"/>
<path d="M337.794 24.7016L331.654 14.9416V27.7816H330.234V12.6016H331.874L337.914 22.3216L343.934 12.6016H345.374V27.7816H343.954V14.9416L337.814 24.7016H337.794Z" fill="white"/>
<path d="M350.211 27.7816V12.6016H351.631V27.7816H350.211Z" fill="white"/>
<path d="M366.092 13.9181H360.992V27.7581H359.572V13.9181H354.512V12.5781H366.092V13.9181Z" fill="white"/>
<path d="M229.395 51.8817V35.7617H232.535V42.4017H234.075L238.615 35.7617H242.155L236.735 43.6817L242.555 51.8817H238.735L234.195 45.3417H232.535V51.8817H229.395Z" fill="white"/>
<path d="M250.692 35.3984C251.812 35.3984 252.912 35.6184 253.932 36.0584C254.972 36.4984 255.852 37.0984 256.592 37.8584C257.332 38.6184 257.932 39.4984 258.372 40.5584C258.812 41.5984 259.032 42.6784 259.032 43.8384C259.032 44.9984 258.812 46.0584 258.372 47.0984C257.932 48.1384 257.332 49.0184 256.592 49.7784C255.852 50.5384 254.952 51.1184 253.932 51.5784C252.912 52.0184 251.812 52.2384 250.692 52.2384C249.572 52.2384 248.472 52.0184 247.452 51.5784C246.432 51.1384 245.532 50.5384 244.792 49.7784C244.052 49.0184 243.452 48.1384 243.012 47.0984C242.572 46.0584 242.352 44.9784 242.352 43.8384C242.352 42.3184 242.712 40.8984 243.472 39.6184C244.212 38.3184 245.232 37.2984 246.512 36.5384C247.792 35.7784 249.192 35.4184 250.692 35.4184V35.3984ZM250.692 49.0784C252.072 49.0784 253.252 48.5584 254.232 47.5384C255.212 46.5184 255.692 45.2784 255.692 43.8184C255.692 42.3584 255.212 41.1184 254.232 40.0784C253.252 39.0584 252.072 38.5384 250.692 38.5384C249.312 38.5384 248.152 39.0584 247.172 40.0784C246.192 41.0984 245.712 42.3584 245.712 43.8184C245.712 45.2784 246.192 46.5184 247.172 47.5384C248.152 48.5584 249.332 49.0784 250.692 49.0784Z" fill="white"/>
<path d="M262.075 51.8817V35.7617H267.815C269.715 35.7617 271.235 36.2217 272.395 37.1617C273.555 38.1017 274.115 39.3217 274.115 40.8617C274.115 41.9617 273.815 42.9017 273.215 43.7017C272.615 44.5017 271.775 45.1017 270.715 45.5017L274.455 51.9217H270.815L267.515 45.9817H265.215V51.9217H262.055L262.075 51.8817ZM268.055 38.5217H265.215V43.1617H268.055C268.875 43.1617 269.535 42.9417 270.055 42.5217C270.555 42.1017 270.815 41.5217 270.815 40.8217C270.815 40.1217 270.575 39.5617 270.055 39.1417C269.555 38.7217 268.895 38.5017 268.055 38.5017V38.5217Z" fill="white"/>
<path d="M277.492 51.8817V35.7617H287.692V38.7017H280.632V42.2817H287.272V45.2417H280.632V48.9017H287.932V51.8617H277.492V51.8817Z" fill="white"/>
<path d="M302.211 51.8817L300.811 48.2617H293.751L292.331 51.8817H289.031L295.511 35.7617H299.171L305.671 51.8817H302.171H302.211ZM299.751 45.4617L297.291 39.0617L294.831 45.4617H299.751Z" fill="white"/>
<path d="M136.111 13.3208H119.531V51.2608H128.971V40.0608H136.111C143.491 40.0608 149.471 34.0808 149.471 26.6808C149.471 19.2808 143.491 13.3008 136.111 13.3008V13.3208ZM135.831 31.6408H128.971V22.1208H135.831C138.151 22.1208 140.011 24.2408 140.011 26.8808C140.011 29.5208 138.131 31.6408 135.831 31.6408Z" fill="white"/>
<path d="M91.9133 13.3203L77.1133 51.2603H87.8733L90.1733 44.6803H104.073L106.373 51.2603H117.133L102.333 13.3203H91.9133ZM93.1133 36.2403L97.1333 24.7003L101.153 36.2403H93.1333H93.1133Z" fill="white"/>
<path d="M163.292 36.4003H178.112V27.9803H163.292V22.1403H179.012V13.3203H153.852V51.2603H179.512V42.4403H163.292V36.4203V36.4003Z" fill="white"/>
<path d="M210.573 39.3009C208.473 41.6009 206.153 42.9209 202.653 42.9209C196.753 42.9209 192.473 38.4009 192.473 32.3009C192.473 26.2009 196.753 21.6809 202.653 21.6809C206.173 21.6809 208.293 22.8609 210.553 25.2409L216.553 18.3009C213.333 14.5009 208.453 12.4609 202.653 12.4609C191.393 12.4609 182.812 21.0409 182.812 32.3009C182.812 43.5609 191.393 52.1409 202.653 52.1409C208.613 52.1409 213.133 50.1409 216.613 45.9409L210.573 39.3009Z" fill="white"/>
<path d="M27.9311 27.5205C28.0711 26.6205 28.1711 26.1005 28.1711 26.1005C28.1711 26.1005 25.6911 19.7805 22.8311 13.8205C21.1311 10.2805 19.3311 6.86048 17.8311 4.94048C15.2911 1.72048 16.0511 2.06048 12.1711 1.38048C11.3511 1.24048 2.87109 1.84048 2.87109 1.90048C3.99109 7.50048 5.15109 13.1005 6.39109 18.7005L8.71109 28.8405C9.53109 32.3205 10.3711 35.7805 11.2511 39.2405C11.7711 41.3205 12.3311 43.4205 12.8711 45.4805C13.2311 46.8405 13.6311 48.2805 14.5911 49.3205C16.6311 51.5405 20.2111 51.1005 23.1711 50.4805C24.0111 50.3005 24.9311 50.0805 25.4911 49.4405C26.2311 48.6005 26.1511 47.3405 26.0711 46.2405C25.8911 43.8005 26.3111 39.2605 26.8311 35.1205C27.2311 32.0405 27.6711 29.1805 27.9311 27.5405V27.5205Z" fill="#68BB69"/>
<path d="M28.5718 37.8206C25.9718 37.4406 24.1518 37.1406 24.1518 37.1406C24.1518 37.1406 18.6118 39.3406 12.9918 41.9606C9.07178 43.8006 6.43178 45.5806 4.33178 47.2406C1.11178 49.7806 1.45178 49.0206 0.771781 52.9006C0.631781 53.7206 1.03178 61.6206 1.07178 61.6206C8.31178 60.1806 14.1918 58.8806 21.3718 57.2206C24.4918 56.5006 27.6118 55.7606 30.7318 55.0006C33.7118 54.2806 36.6718 53.5406 39.6518 52.7806C40.8718 52.4806 42.0718 52.1606 43.2918 51.8406C44.6518 51.4806 46.0918 51.0806 47.1318 50.1206C49.3518 48.0806 49.1318 45.0806 48.5118 42.1206C48.3318 41.2806 48.1118 40.3606 47.4718 39.8006C46.6318 39.0606 45.3718 39.1406 44.2718 39.2206C42.4518 39.3606 39.4718 39.1406 36.3518 38.8206C33.6318 38.5206 30.7918 38.1406 28.5518 37.8206" fill="#7E6BAE"/>
<path d="M41.6116 48.2594C43.5916 52.5594 45.8916 57.1594 47.7316 59.4794C50.2716 62.6994 49.5116 62.3594 53.3916 63.0394C54.2116 63.1794 62.6916 62.5594 62.6916 62.4994C61.4116 56.0794 60.0316 49.6594 58.5716 43.2594L56.1716 33.0194C55.3716 29.7194 54.5516 26.4194 53.7116 23.1394C53.3516 21.7594 53.0116 20.3594 52.6516 18.9794C52.2916 17.6194 51.8916 16.1794 50.9316 15.1394C48.8916 12.9194 45.3116 13.3594 42.3516 13.9794C41.5116 14.1594 40.5916 14.3794 40.0316 15.0194C39.2916 15.8594 39.3716 17.1194 39.4516 18.2194C39.5916 20.0394 39.3716 22.9794 39.0516 26.0794C38.7716 28.7394 38.3916 31.4994 38.0716 33.7394C37.6716 36.4394 37.3516 38.3794 37.3516 38.3794C37.3516 38.3794 39.2316 43.1394 41.5916 48.2794L41.6116 48.2594Z" fill="#E04250"/>
<path d="M23.1319 11.1784C22.8519 11.2584 22.5719 11.3184 22.2919 11.3984C20.9319 11.7584 19.4919 12.1584 18.4519 13.1184C16.2319 15.1584 16.6719 18.7384 17.2919 21.6984C17.4719 22.5384 17.6919 23.4584 18.3319 24.0184C19.1719 24.7584 20.4319 24.6784 21.5319 24.5984C23.1119 24.4784 25.5719 24.6384 28.2319 24.8784C30.8119 25.1384 33.5719 25.4784 35.9319 25.8184C39.2119 26.2784 41.6719 26.6784 41.6719 26.6784C41.6719 26.6784 45.8319 25.0584 50.6119 22.8984C55.1919 20.8384 60.3119 18.3184 62.8119 16.3584C66.0319 13.8184 65.6919 14.5784 66.3719 10.6984C66.5119 9.87844 65.9119 1.39844 65.8519 1.39844C58.6719 2.81844 51.4919 4.35844 44.3519 5.97844L34.5719 8.27844C30.7519 9.19844 26.9319 10.1784 23.1319 11.1584V11.1784Z" fill="#F0AC32"/>
<path d="M8.75111 28.8003C10.1311 28.3403 11.5711 27.0803 11.8711 23.0403C12.0511 20.7803 10.0111 18.9603 6.95111 18.7203C6.77111 18.7203 6.59111 18.6803 6.43111 18.6803C3.63111 18.4603 0.911108 19.5203 0.671108 22.5203C0.411108 25.7003 2.07111 28.2003 5.11111 28.7003C6.43111 28.9203 7.67111 29.1803 8.75111 28.8203V28.8003Z" fill="#68BB69"/>
<path d="M30.7712 55.0194C29.8712 54.2994 28.8512 53.4594 27.3712 53.3394C24.3112 53.0994 21.7112 53.2794 21.4512 56.4594C21.4312 56.7194 21.4112 56.9794 21.4112 57.2394C21.3712 60.1794 22.4712 63.1794 25.2712 63.6394C28.2712 64.1394 30.8912 64.8594 32.0312 57.9994C32.2312 56.8394 31.7312 55.7994 30.7712 55.0194Z" fill="#7E6BAE"/>
<path d="M35.1517 7.97951C35.7517 9.31951 36.7717 10.3395 38.3117 10.5795C41.2117 11.0595 43.7317 11.7395 44.9517 5.65951C44.9917 5.41951 45.0517 5.19951 45.0917 4.93951C45.4717 2.69951 43.7317 0.29951 40.6717 0.0395105C37.6117 -0.22049 34.7717 0.219511 34.5117 3.37951C34.3917 4.95951 34.5717 6.61951 35.1717 7.95951L35.1517 7.97951Z" fill="#F0AC32"/>
<path d="M56.391 34.1981C54.891 34.3581 52.791 36.2381 52.611 38.2581C52.351 41.4381 54.511 43.7381 57.551 44.2381C57.971 44.2981 58.391 44.3781 58.791 44.4381C61.271 44.7781 63.331 44.4981 64.311 38.5981C64.691 36.3581 62.911 34.1381 59.851 33.8981C58.731 33.7981 57.251 34.1181 56.391 34.1981Z" fill="#E04250"/>
<path d="M48.5338 42.1409C48.3538 41.3009 48.1338 40.3809 47.4938 39.8209C46.6538 39.0809 45.3938 39.1609 44.2938 39.2409C42.7138 39.3609 40.2738 39.2009 37.5938 38.9609C38.1737 40.4009 39.7337 44.2009 41.5938 48.2609C42.1338 49.4609 42.7138 50.6809 43.2938 51.8609C44.6538 51.5009 46.0938 51.1009 47.1338 50.1409C49.3538 48.1009 49.1338 45.1009 48.5138 42.1409H48.5338Z" fill="#814754"/>
<path d="M50.9312 15.1198C48.8912 12.8998 45.3112 13.3398 42.3512 13.9598C41.5112 14.1398 40.5913 14.3598 40.0312 14.9998C39.2912 15.8398 39.3712 17.0998 39.4512 18.1998C39.5912 20.0198 39.3712 22.9598 39.0512 26.0598C39.0512 26.1198 39.0512 26.1998 39.0312 26.2798C40.6313 26.5198 41.6712 26.6998 41.6712 26.6998C41.6712 26.6998 45.8312 25.0798 50.6112 22.9198C51.5112 22.5198 52.4312 22.0998 53.3512 21.6598C53.1112 20.7598 52.8912 19.8798 52.6512 18.9798C52.2912 17.6198 51.8912 16.1798 50.9312 15.1398V15.1198Z" fill="#C74523"/>
<path d="M11.8736 23.0397C12.0536 20.7797 10.0136 18.9597 6.95359 18.7197C6.77359 18.7197 6.59359 18.6797 6.43359 18.6797L8.75359 28.8197C10.1336 28.3597 11.5736 27.0997 11.8736 23.0597V23.0397Z" fill="#42914B"/>
<path d="M21.4536 56.4789C21.4336 56.7389 21.4336 56.9989 21.4336 57.2589C24.5536 56.5389 27.6736 55.7989 30.7936 55.0389C29.8936 54.3189 28.8736 53.4789 27.3936 53.3589C24.3336 53.1189 21.7336 53.2989 21.4736 56.4789H21.4536Z" fill="#66538F"/>
<path d="M38.2944 10.5989C41.1544 11.0789 43.6544 11.7389 44.8944 5.87891C44.7144 5.91891 44.5344 5.95891 44.3544 5.99891L35.2344 8.15891C35.8544 9.41891 36.8344 10.3589 38.2944 10.5989Z" fill="#D67718"/>
<path d="M52.6345 38.2597C52.3745 41.4397 54.5345 43.7397 57.5745 44.2397C57.9945 44.2997 58.4145 44.3797 58.8145 44.4397H58.8745C58.7745 44.0397 58.6945 43.6397 58.5945 43.2397L56.4745 34.1797C56.4745 34.1797 56.4345 34.1797 56.4145 34.1797C54.9145 34.3397 52.8145 36.2197 52.6345 38.2397V38.2597Z" fill="#BC2B3F"/>
<path d="M17.2919 21.6986C17.4719 22.5386 17.6919 23.4586 18.3319 24.0186C19.1719 24.7586 20.4319 24.6786 21.5319 24.5986C22.9919 24.4986 25.2319 24.5986 27.6519 24.8386C26.7919 22.6986 24.9119 18.1786 22.8319 13.8186C22.4719 13.0586 22.0919 12.2986 21.7319 11.5586C20.5519 11.8786 19.3519 12.2786 18.4519 13.1186C16.2319 15.1586 16.6719 18.7386 17.2919 21.6986Z" fill="#638049"/>
<path d="M14.5942 49.3202C16.6342 51.5402 20.2142 51.1002 23.1742 50.4802C24.0142 50.3002 24.9342 50.0802 25.4942 49.4402C26.2342 48.6002 26.1542 47.3402 26.0742 46.2402C25.9342 44.2802 26.1742 40.9202 26.5542 37.5402C25.0942 37.3202 24.1542 37.1602 24.1542 37.1602C24.1542 37.1602 18.6142 39.3602 12.9942 41.9802C12.6742 42.1402 12.3742 42.2802 12.0742 42.4202C12.3542 43.4402 12.6142 44.4602 12.8742 45.4802C13.2342 46.8402 13.6342 48.2802 14.5942 49.3202Z" fill="#465964"/>
</g>
<defs>
<clipPath id="clip0_3_9879">
<rect width="365.46" height="63.94" fill="white" transform="translate(0.632812)"/>
</clipPath>
</defs>
</svg>
