<svg width="69" height="55" viewBox="0 0 69 55" fill="none" xmlns="http://www.w3.org/2000/svg">
<g clip-path="url(#clip0_979_202542)">
<path d="M10.1529 39.854C8.23349 38.9569 6.65904 38.2324 6.65904 36.7651C6.65904 35.6448 7.55583 34.829 9.32709 34.829C9.97837 34.829 10.512 34.9061 11.0618 35.0076C11.3499 35.0583 11.6563 35.0989 11.9119 35.0989C13.46 35.0989 14.3325 34.1755 14.9127 32.4241L15.1522 31.7077C14.9046 31.6062 12.3766 30.4961 9.07956 30.4961C3.83476 30.4961 1.06527 33.8609 1.0673 37.3516C1.0673 39.1132 1.61917 40.3877 2.48146 41.3943C3.59332 42.6871 5.17792 43.5334 6.66107 44.2559C8.82188 45.3173 10.7717 46.1007 10.7717 47.6715C10.7717 49.0657 9.33114 49.8592 7.40569 49.8592C4.76604 49.8592 2.45914 48.3493 2.16495 48.1687L-0.00195312 52.2317C0.383544 52.4488 3.17333 54.2226 7.76684 54.2226C12.6606 54.2185 16.3675 51.4118 16.3675 47.0931C16.3675 42.7744 12.9325 41.2015 10.1508 39.854H10.1529Z" fill="#4F4F4F"/>
<path d="M29.2957 41.8612L38.1743 30.9731H31.8481L24.7671 40.3696H24.6616V30.9731H19.4473V54.04H19.7597C22.0139 54.04 24.6981 52.9969 24.6981 49.2302V43.9353H24.8037L32.0226 53.7539H38.6592L29.2977 41.8633L29.2957 41.8612Z" fill="#4F4F4F"/>
<path d="M38.4709 6.26424C36.6347 6.61128 33.9139 8.27747 33.922 11.2242C33.9281 13.9011 36.1173 15.5227 36.1234 19.0296C36.1335 21.6679 34.6788 23.4457 33.1084 24.43C33.7435 24.3731 34.4394 24.3366 35.2063 24.3366C36.8132 24.3326 37.781 24.4848 37.8399 24.4949L46.0753 14.3862C43.7887 10.9604 41.1166 8.30385 38.4709 6.26221V6.26424Z" fill="#4F4F4F"/>
<path d="M45.3894 33.5626C46.4282 31.9491 46.5581 29.3758 46.6453 26.7557C46.7427 24.3123 47.252 22.4715 50.5206 22.4614C51.2449 22.4594 51.9347 22.5588 53.1846 22.5547C57.9749 22.5345 61.1015 20.8845 63.0452 19.8008C59.0705 17.266 53.2718 14.6784 46.0752 14.3882C45.6065 15.7114 41.9585 25.8547 41.6846 26.6725C41.7251 26.7212 42.3643 27.4376 43.1616 28.8339C44.3384 30.7518 44.9694 32.3774 45.3894 33.5626Z" fill="#4F4F4F"/>
<path d="M27.9954 25.2784C27.5795 25.2805 27.3725 25.0045 27.3157 24.5235C27.2629 24.0466 25.2036 5.19688 24.8972 2.34549C24.8526 1.92945 24.7491 1.16434 24.7471 0.89239C24.7471 0.451996 25.0332 0.224696 25.37 0.222666C26.3459 0.218607 31.6637 1.4647 37.3082 5.42216C35.681 5.88082 32.7411 7.57339 32.7532 11.0762C32.7634 14.1773 34.983 15.884 34.9952 18.9932C35.0135 24.0526 29.2006 25.2764 27.9954 25.2784Z" fill="#4F4F4F"/>
<path d="M45.8623 34.9083C45.9516 35.1437 46.0348 35.3406 46.118 35.4786C46.2478 35.6977 46.4162 35.7992 46.6252 35.7972C46.7571 35.7972 46.9174 35.7525 47.0959 35.6714C47.5301 35.4725 64.7273 27.4642 67.3223 26.2668C67.6977 26.0862 68.4119 25.7676 68.6452 25.6296C68.8887 25.4916 69.0003 25.2886 69.0003 25.0816C69.0003 24.9659 68.9658 24.8503 68.9009 24.7447C68.5762 24.2191 66.9125 22.4535 64.1308 20.5234C61.9213 21.7391 58.4721 23.6204 53.343 23.6427C52.085 23.6427 51.801 23.5595 50.9428 23.5636C48.4391 23.5717 47.8141 24.6433 47.7208 26.8412C47.7046 27.2552 47.6985 27.8153 47.6741 28.4262C47.595 30.3887 47.3617 33.096 45.8623 34.9083Z" fill="#4F4F4F"/>
</g>
<defs>
<clipPath id="clip0_979_202542">
<rect width="69" height="54" fill="white" transform="translate(0 0.222656)"/>
</clipPath>
</defs>
</svg>
