<svg width="120" height="31" viewBox="0 0 120 31" fill="none" xmlns="http://www.w3.org/2000/svg">
<g clip-path="url(#clip0_538_185399)">
<path d="M41.6715 19.3714C42.1294 19.3376 42.5446 19.1035 42.8082 18.729C43.085 18.3389 43.1622 17.8525 43.0265 17.4L42.0708 14.2503C41.9963 14.0448 41.3015 11.9485 42.6831 10.1643C43.8118 8.70518 45.8296 8.10958 47.7037 8.68177L47.3337 9.83917C45.9574 9.41782 44.4879 9.84177 43.6734 10.8951C42.6671 12.1956 43.2261 13.8081 43.2527 13.8757L44.2164 17.054C44.4613 17.8629 44.3202 18.7238 43.8304 19.4182C43.3512 20.0971 42.5979 20.521 41.762 20.5834H41.7114C41.6262 20.5912 41.5411 20.5938 41.4585 20.5938C39.6936 20.5938 38.5542 19.4547 38.3359 19.2154L39.2623 18.4065C39.4221 18.5834 40.2899 19.4573 41.6316 19.374" fill="#ED1552"/>
<path d="M41.897 24.0374C41.2102 24.0374 40.3717 23.9334 39.4799 23.59C38.1701 23.0855 37.3076 22.2818 36.8125 21.6966L37.7708 20.9241C38.1728 21.3975 38.8729 22.0503 39.9351 22.4587C40.9972 22.867 41.9662 22.8566 42.5892 22.7786L42.7515 23.9828C42.5066 24.014 42.2191 24.0374 41.897 24.0374Z" fill="#ED1552"/>
<path d="M37.4393 11.6884C37.1145 11.3034 36.7365 10.9809 36.3159 10.7286C34.9529 9.90676 32.7248 9.62067 31.2766 10.7052C30.9545 10.9445 30.6803 11.2488 30.4567 11.6077L29.3945 10.9757C29.698 10.4894 30.076 10.0732 30.5206 9.74031C32.4319 8.30982 35.2111 8.63493 36.9681 9.69609C37.5058 10.0186 37.9876 10.4295 38.3976 10.9159" fill="#FAAA57"/>
<path d="M41.1067 4.65559C42.1369 4.65559 43.1352 4.79084 44.0855 5.04053L44.4076 3.86752C43.3535 3.59183 42.2487 3.44098 41.1067 3.44098C34.0762 3.44098 28.3555 9.03029 28.3555 15.8992H29.5986C29.5986 9.69872 34.7604 4.65559 41.1067 4.65559Z" fill="#FAAA57"/>
<path d="M31.8217 31L32.4633 29.9597C27.5864 27.0857 24.3174 21.8605 24.3174 15.9019H23.0742C23.0742 22.3026 26.5855 27.9154 31.8244 31.0026" fill="#9A95C8"/>
<path d="M32.7292 29.5253L33.3681 28.4849C30.6688 26.8932 28.5205 24.4952 27.2747 21.6368L26.1406 22.1309C27.4929 25.2182 29.8116 27.8087 32.7292 29.5253Z" fill="#ED1840"/>
<path d="M41.1091 0C32.1353 0 24.8359 7.13164 24.8359 15.8992C24.8359 18.11 25.3045 20.2141 26.1403 22.1284L27.2744 21.6342C26.505 19.8708 26.0765 17.9331 26.0765 15.8992C26.0765 7.80267 32.8194 1.21462 41.1064 1.21462C42.4507 1.21462 43.7551 1.39148 44.9957 1.71659L45.3178 0.543586C43.9734 0.192466 42.5625 0 41.1064 0" fill="#F37720"/>
<path d="M26.5977 15.8992C26.5977 21.049 29.4221 25.5641 33.6388 28.048L34.2777 27.0076C30.423 24.737 27.8408 20.6068 27.8408 15.8992C27.8408 11.1916 30.4709 6.98856 34.3815 4.73099L33.7985 3.65942C29.494 6.12247 26.5977 10.687 26.5977 15.8992Z" fill="#CB214E"/>
<path d="M41.1069 1.72178C38.4422 1.72178 35.9452 2.42922 33.7969 3.65944L34.3799 4.73101C36.3551 3.59182 38.6551 2.93379 41.1069 2.93379C42.2941 2.93379 43.4442 3.08985 44.5409 3.37594L44.863 2.20294C43.6651 1.88824 42.406 1.71918 41.1069 1.71918" fill="#F7A696"/>
<path d="M4.2111 4.65559C3.18089 4.65559 2.18262 4.79084 1.23226 5.04053L0.910156 3.86752C1.96433 3.59183 3.06908 3.44098 4.2111 3.44098C11.2416 3.44098 16.9623 9.03029 16.9623 15.8992H15.7192C15.7192 9.69872 10.5574 4.65559 4.2111 4.65559Z" fill="#8BB9E3"/>
<path d="M21.5918 20.6172L20.3938 20.2921C21.9139 14.9291 20.6095 8.93665 16.4141 4.61137L17.3165 3.77649C21.8207 8.42428 23.2209 14.8589 21.5918 20.6172Z" fill="#A965A9"/>
<path d="M12.592 29.5253L11.9531 28.4849C14.6524 26.8932 16.8007 24.4952 18.0466 21.6368L19.1806 22.1309C17.8283 25.2182 15.5096 27.8087 12.592 29.5253Z" fill="#006BB7"/>
<path d="M4.21137 0C13.1851 0 20.4845 7.13164 20.4845 15.8992C20.4845 18.11 20.0186 20.2141 19.1801 22.1284L18.0461 21.6342C18.8154 19.8708 19.244 17.9331 19.244 15.8992C19.244 7.80267 12.501 1.21462 4.21403 1.21462C2.86969 1.21462 1.56529 1.39148 0.32477 1.71659L0 0.543586C1.34434 0.189865 2.75522 0 4.21137 0Z" fill="#65B2E2"/>
<path d="M18.724 15.8992C18.724 21.049 15.8996 25.5641 11.6829 28.048L11.044 27.0076C14.8986 24.737 17.4808 20.6068 17.4808 15.8992C17.4808 11.1916 14.8507 6.98856 10.9375 4.73099L11.5205 3.65942C15.825 6.12247 18.7213 10.687 18.7213 15.8992" fill="#007DC5"/>
<path d="M4.21319 1.72178C6.8779 1.72178 9.37491 2.42922 11.5232 3.65944L10.9402 4.73101C8.96761 3.59182 6.6676 2.93379 4.21319 2.93379C3.02591 2.93379 1.87591 3.08985 0.77914 3.37594L0.457031 2.20294C1.65495 1.88824 2.91411 1.71918 4.21319 1.71918" fill="#737FBD"/>
<path d="M94.4415 6.56723C93.9464 6.56723 93.6349 6.82992 93.6349 7.52436V8.56471H92.1602V7.62319C92.1602 6.07306 92.9534 5.18616 94.4841 5.18616C96.0148 5.18616 96.8108 6.07306 96.8108 7.62319C96.8108 10.6714 93.7068 11.808 93.7068 13.3998C93.7068 13.47 93.7068 13.5376 93.7201 13.6078H96.6697V14.9941H92.1628V13.8029C92.1628 10.9497 95.2535 10.479 95.2535 7.68041C95.2535 6.80651 94.9393 6.57243 94.4442 6.57243" fill="black"/>
<path d="M99.7852 7.62063C99.7852 6.0679 100.621 5.18359 102.152 5.18359C103.682 5.18359 104.518 6.0705 104.518 7.62063V12.6638C104.518 14.2139 103.682 15.1008 102.152 15.1008C100.621 15.1008 99.7852 14.2139 99.7852 12.6638M101.345 12.76C101.345 13.4518 101.657 13.7145 102.152 13.7145C102.647 13.7145 102.961 13.4518 102.961 12.76V7.52439C102.961 6.83256 102.65 6.56727 102.152 6.56727C101.654 6.56727 101.345 6.82996 101.345 7.52439V12.76Z" fill="black"/>
<path d="M109.949 6.56723C109.454 6.56723 109.14 6.82992 109.14 7.52436V8.56471H107.668V7.62319C107.668 6.07306 108.461 5.18616 109.992 5.18616C111.523 5.18616 112.319 6.07306 112.319 7.62319C112.319 10.6714 109.215 11.808 109.215 13.3998C109.215 13.47 109.215 13.5376 109.228 13.6078H112.177V14.9941H107.671V13.8029C107.671 10.9497 110.761 10.479 110.761 7.68041C110.761 6.80651 110.45 6.57243 109.952 6.57243" fill="black"/>
<path d="M116.822 11.8601V12.76C116.822 13.4518 117.134 13.7015 117.629 13.7015C118.124 13.7015 118.438 13.4518 118.438 12.76V10.6272C118.438 9.9354 118.124 9.67271 117.629 9.67271C117.134 9.67271 116.822 9.9354 116.822 10.6272V10.9185H115.348L115.632 5.29541H119.745V6.68168H117.038L116.91 8.99388C117.195 8.53612 117.648 8.28643 118.271 8.28643C119.421 8.28643 120.001 9.0771 120.001 10.5024V12.6637C120.001 14.2165 119.208 15.1008 117.674 15.1008C116.141 15.1008 115.348 14.2139 115.348 12.6637V11.8601" fill="black"/>
<path d="M62.8361 14.9915H61.2628L60.994 13.2333H59.08L58.8111 14.9915H57.3789L58.9682 5.29541H61.2522M59.2769 11.9147H60.7783L60.025 7.012L59.2743 11.9147H59.2769Z" fill="black"/>
<path d="M70.3232 7.6908V8.95224C70.3232 10.505 69.5565 11.3503 67.9966 11.3503H67.2592V14.9941H65.6992V5.29279H67.9966C69.5565 5.29279 70.3232 6.13807 70.3232 7.6882M67.2618 6.67906V9.96138H67.9992C68.4944 9.96138 68.7659 9.74031 68.7659 9.04587V7.59197C68.7659 6.90014 68.497 6.67646 67.9992 6.67646H67.2618V6.67906Z" fill="black"/>
<path d="M74.7436 9.38138H76.8838V10.7651H74.7436V13.6052H77.4375V14.9915H73.1836V5.29279H77.4375V6.67906H74.7436" fill="black"/>
<path d="M85.0647 11.3737V12.6611C85.0647 14.2139 84.2714 15.0982 82.738 15.0982C81.2047 15.0982 80.4141 14.2113 80.4141 12.6611V7.618C80.4141 6.06527 81.2074 5.18097 82.738 5.18097C84.2687 5.18097 85.0647 6.06787 85.0647 7.618V8.55952H83.5899V7.51917C83.5899 6.82733 83.2784 6.56204 82.7833 6.56204C82.2882 6.56204 81.974 6.82473 81.974 7.51917V12.7548C81.974 13.4466 82.2855 13.6963 82.7833 13.6963C83.2811 13.6963 83.5899 13.4466 83.5899 12.7548V11.3685" fill="black"/>
<path d="M58.7605 22.9372L58.4331 23.5381V25.5537H57.3789V18.9917H58.4331V21.8501L59.8147 18.9917H60.8689L59.4021 21.9177L60.8689 25.5537H59.7854" fill="black"/>
<path d="M65.6055 20.5678C65.6055 19.5197 66.1725 18.9189 67.2054 18.9189C68.2382 18.9189 68.8079 19.5197 68.8079 20.5678V23.9802C68.8079 25.031 68.2409 25.6292 67.2054 25.6292C66.1698 25.6292 65.6055 25.031 65.6055 23.9802M66.6623 24.0452C66.6623 24.5134 66.8726 24.6929 67.208 24.6929C67.5434 24.6929 67.7564 24.516 67.7564 24.0452V20.5028C67.7564 20.0347 67.5434 19.8552 67.208 19.8552C66.8726 19.8552 66.6623 20.0321 66.6623 20.5028V24.0452Z" fill="black"/>
<path d="M76.1014 25.5537C76.0428 25.3846 76.0055 25.2832 76.0055 24.7474V23.7175C76.0055 23.1089 75.7952 22.8826 75.3161 22.8826H74.9514V25.5537H73.8945V18.9943H75.4891C76.5832 18.9943 77.0517 19.491 77.0517 20.5028V21.0178C77.0517 21.6914 76.8308 22.1335 76.3623 22.3494C76.8893 22.5653 77.0624 23.0621 77.0624 23.7461V24.7578C77.0624 25.0777 77.0704 25.3118 77.1768 25.5537M74.9514 19.9306V21.9463H75.364C75.758 21.9463 75.9976 21.7772 75.9976 21.2544V20.6068C75.9976 20.1387 75.8352 19.9332 75.4598 19.9332H74.9514V19.9306Z" fill="black"/>
<path d="M83.2143 21.7564H84.6625V22.6954H83.2143V24.6148H85.0378V25.5537H82.1602V18.9917H85.0378V19.9306H83.2143" fill="black"/>
<path d="M93.5152 25.5537H92.4504L92.2694 24.3625H90.973L90.7893 25.5537H89.8203L90.8958 18.9917H92.4398M91.1061 23.473H92.123L91.6145 20.1543L91.1061 23.473Z" fill="black"/>
</g>
<defs>
<clipPath id="clip0_538_185399">
<rect width="120" height="31" fill="white"/>
</clipPath>
</defs>
</svg>
