<svg
              width="74"
              height="29"
              viewBox="0 0 74 29"
              fill="none"
              xmlns="http://www.w3.org/2000/svg"
            >
              <path
                d="M58.2528 26.764V26.0794L60.0447 24.363C60.3787 24.0522 60.5483 23.7419 60.5483 23.4415C60.5483 23.252 60.4794 23.0891 60.3469 22.9677C60.2143 22.8412 60.0394 22.7783 59.822 22.7783C59.4138 22.7783 59.101 23.0099 58.873 23.4681L58.168 23.0047C58.2369 22.8574 58.3217 22.7257 58.4224 22.5992C58.5179 22.4778 58.6398 22.3623 58.7723 22.2623C58.9102 22.1566 59.0692 22.078 59.2547 22.0203C59.4403 21.9619 59.6418 21.9359 59.8591 21.9359C60.3363 21.9359 60.7233 22.078 61.0148 22.3675C61.3064 22.6569 61.4549 23.0047 61.4549 23.4259C61.4549 23.6784 61.3913 23.9152 61.2693 24.1469C61.1474 24.3734 60.9459 24.616 60.6703 24.8737L59.4827 25.9743H61.4814V26.7692H58.2422L58.2528 26.764Z"
                fill="black"
              />
              <path
                d="M64.0777 26.7692C63.7278 26.7692 63.4093 26.6665 63.1221 26.4552C62.8401 26.2497 62.6156 25.9611 62.4589 25.5906C62.3023 25.2201 62.2188 24.8134 62.2188 24.3554C62.2188 23.8974 62.2971 23.4857 62.4537 23.1146C62.6104 22.7441 62.8244 22.4561 63.1064 22.2499C63.3832 22.0443 63.6965 21.9359 64.0412 21.9359C64.3858 21.9359 64.7147 22.0393 65.0019 22.2499C65.2891 22.4561 65.5085 22.7441 65.6703 23.1146C65.827 23.48 65.9053 23.8923 65.9001 24.3503C65.9001 24.8083 65.827 25.2201 65.6756 25.5906C65.5189 25.9611 65.3048 26.2497 65.0228 26.4552C64.7409 26.6614 64.4275 26.7692 64.0777 26.7692ZM64.062 25.9407C64.344 25.9407 64.5685 25.7967 64.7461 25.503C64.9236 25.2099 65.0072 24.8338 65.0072 24.3605C65.0072 23.8866 64.9184 23.506 64.7409 23.2129C64.5633 22.9192 64.3284 22.7752 64.0412 22.7752C63.7539 22.7752 63.5399 22.9243 63.3675 23.2129C63.1952 23.506 63.1117 23.8866 63.1117 24.3554C63.1117 24.8236 63.2004 25.2099 63.3727 25.503C63.5451 25.7967 63.7748 25.9407 64.062 25.9407Z"
                fill="black"
              />
              <path
                d="M66.3579 26.764V26.0794L68.3489 24.363C68.72 24.0522 68.9085 23.7419 68.9085 23.4415C68.9085 23.252 68.8378 23.0891 68.6847 22.9677C68.5374 22.8412 68.343 22.7783 68.1015 22.7783C67.6479 22.7783 67.3004 23.0099 67.053 23.4681L66.2695 23.0047C66.3461 22.8574 66.4404 22.7257 66.5523 22.5992C66.6583 22.4778 66.7938 22.3623 66.9411 22.2623C67.0942 22.1566 67.2709 22.078 67.4771 22.0203C67.6833 21.9619 67.9071 21.9359 68.1486 21.9359C68.6787 21.9359 69.1088 22.078 69.4328 22.3675C69.7567 22.6569 69.9217 23.0047 69.9217 23.4259C69.9217 23.6784 69.851 23.9152 69.7155 24.1469C69.58 24.3734 69.3561 24.616 69.0499 24.8737L67.7304 25.9743H69.9511V26.7692H66.352L66.3579 26.764Z"
                fill="black"
              />
              <path
                d="M71.8942 25.9165C72.1582 25.9165 72.3653 25.8426 72.5154 25.7004C72.6656 25.5583 72.7433 25.3688 72.7433 25.1423C72.7433 24.9159 72.6707 24.7264 72.5206 24.5791C72.3705 24.4317 72.1634 24.3578 71.8993 24.3578C71.5835 24.3578 71.2885 24.4421 71.0089 24.616L70.605 24.326L70.9778 21.9359H73.3645V22.7309H71.6975L71.5369 23.6945C71.6871 23.6258 71.8683 23.5894 72.0806 23.5894C72.5569 23.5894 72.9348 23.7367 73.2144 24.0262C73.4939 24.3156 73.6337 24.6946 73.6337 25.1579C73.6337 25.6213 73.4784 26.0165 73.1626 26.3163C72.852 26.6167 72.4326 26.7692 71.9046 26.7692C71.5473 26.7692 71.2315 26.6959 70.9674 26.5537C70.7034 26.411 70.486 26.2112 70.3203 25.9587L70.9674 25.3688C71.216 25.7322 71.5266 25.9113 71.8942 25.9113V25.9165Z"
                fill="black"
              />
              <path
                d="M36.437 15.4137L36.1766 15.7565C35.8089 15.447 35.4004 15.2917 34.946 15.2917C34.6243 15.2917 34.3281 15.3803 34.0575 15.5629C33.7869 15.7401 33.5724 15.9889 33.4141 16.2929C33.2558 16.6024 33.1792 16.9398 33.1792 17.2997C33.1792 17.6589 33.2609 17.9908 33.4192 18.2948C33.5775 18.5989 33.7971 18.8367 34.0728 19.0139C34.3486 19.1905 34.66 19.2791 34.9971 19.2791C35.477 19.2791 35.8702 19.1353 36.1919 18.8422L36.4472 19.1577C36.243 19.3513 36.0234 19.4897 35.7885 19.5777C35.5485 19.6663 35.2779 19.7051 34.9715 19.7051C34.6651 19.7051 34.3792 19.639 34.1035 19.517C33.8328 19.3902 33.5979 19.2184 33.4039 19.003C33.2099 18.787 33.0567 18.5327 32.9392 18.2342C32.8269 17.9356 32.7656 17.6255 32.7656 17.2997C32.7656 16.9732 32.8218 16.6522 32.9392 16.3536C33.0516 16.0551 33.2099 15.7953 33.4039 15.5793C33.5979 15.3639 33.8328 15.1922 34.0984 15.0653C34.369 14.9379 34.6498 14.8718 34.946 14.8718C35.2626 14.8718 35.5434 14.9161 35.7834 15.004C36.0234 15.0926 36.243 15.2255 36.4421 15.4082L36.437 15.4137Z"
                fill="black"
              />
              <path
                d="M37.5508 19.3333V15.2436H40.4513V15.6021H37.9923V17.1071H40.2892V17.4656H37.9923V18.9754H40.4961V19.3333H37.5508Z"
                fill="black"
              />
              <path
                d="M43.4408 14.8718C43.7404 14.8718 44.0298 14.9378 44.3036 15.0651C44.5775 15.1918 44.81 15.3633 45.0064 15.584C45.2027 15.8052 45.3629 16.0592 45.4766 16.3574C45.5955 16.6556 45.6523 16.9708 45.6523 17.3024C45.6523 17.6339 45.5955 17.9376 45.4766 18.2358C45.3577 18.534 45.2027 18.788 45.0064 19.0038C44.81 19.219 44.5724 19.3905 44.3036 19.5172C44.035 19.6445 43.7456 19.7051 43.4408 19.7051C43.0428 19.7051 42.6709 19.6002 42.335 19.3851C41.9939 19.1693 41.7252 18.8765 41.5289 18.5122C41.3326 18.1419 41.2344 17.7388 41.2344 17.3024C41.2344 16.9708 41.2912 16.6556 41.4101 16.3574C41.5289 16.0592 41.6839 15.7998 41.8803 15.584C42.0766 15.3688 42.3143 15.1973 42.583 15.0706C42.8568 14.9433 43.141 14.8772 43.4408 14.8772V14.8718ZM42.7484 19.125C42.9653 19.2299 43.1979 19.2796 43.4408 19.2796C43.6836 19.2796 43.9161 19.2299 44.1383 19.125C44.3605 19.0202 44.5517 18.882 44.7118 18.6995C44.872 18.5231 44.996 18.3134 45.0942 18.0643C45.1873 17.8212 45.2338 17.5618 45.2338 17.2969C45.2338 16.932 45.1562 16.6005 44.996 16.2913C44.8359 15.9822 44.6189 15.7391 44.345 15.5622C44.0711 15.3852 43.7715 15.2912 43.4459 15.2912C43.2031 15.2912 42.9757 15.347 42.7535 15.4518C42.5313 15.5567 42.3453 15.7004 42.1851 15.8828C42.025 16.0646 41.8958 16.275 41.8027 16.5235C41.7097 16.772 41.6632 17.0314 41.6632 17.3024C41.6632 17.5727 41.7097 17.8273 41.8027 18.0703C41.8958 18.3134 42.025 18.5231 42.1851 18.7056C42.3453 18.882 42.5365 19.0256 42.7535 19.1305L42.7484 19.125Z"
                fill="black"
              />
              <path
                d="M51.4295 15.535L51.1188 15.8342C51.0044 15.6734 50.8409 15.5411 50.6229 15.4355C50.4049 15.3305 50.1651 15.2753 49.9144 15.2753C49.5874 15.2753 49.3258 15.3475 49.1242 15.4853C48.928 15.6291 48.8245 15.8117 48.8245 16.0441C48.8245 16.1716 48.8572 16.2875 48.9171 16.387C48.9771 16.4865 49.0642 16.5697 49.1678 16.6358C49.2713 16.7019 49.3912 16.7632 49.5274 16.813C49.6637 16.8682 49.8054 16.918 49.958 16.9623C50.1106 17.0066 50.2578 17.0563 50.4104 17.1115C50.5629 17.1613 50.7046 17.222 50.8409 17.2997C50.9771 17.3713 51.097 17.4544 51.2005 17.5485C51.3041 17.6425 51.3858 17.7584 51.4513 17.8968C51.5166 18.0351 51.5439 18.1953 51.5439 18.378C51.5439 18.7815 51.3967 19.1025 51.1079 19.3459C50.8136 19.5892 50.4213 19.7051 49.9198 19.7051C49.5383 19.7051 49.206 19.6335 48.9171 19.4951C48.6283 19.3568 48.3994 19.1687 48.2305 18.9363L48.5411 18.6486C48.7045 18.8592 48.9062 19.0194 49.1405 19.1298C49.3749 19.2409 49.6365 19.2961 49.9198 19.2961C50.285 19.2961 50.5684 19.2184 50.7809 19.0582C50.988 18.898 51.0915 18.6875 51.0915 18.4223C51.0915 18.2396 51.0425 18.0849 50.9444 17.9575C50.8463 17.8252 50.7155 17.725 50.5575 17.648C50.3994 17.5703 50.2251 17.5042 50.0289 17.438C49.8327 17.3713 49.6474 17.3106 49.4512 17.2384C49.2604 17.1722 49.086 17.0891 48.9225 17.0011C48.7645 16.9125 48.6337 16.7851 48.5356 16.6303C48.4375 16.4701 48.3885 16.2875 48.3885 16.0721C48.3885 15.7122 48.5302 15.4246 48.8136 15.2037C49.0969 14.9822 49.4675 14.8718 49.9307 14.8718C50.2578 14.8718 50.5575 14.9379 50.83 15.0599C51.1024 15.1867 51.3041 15.3475 51.4349 15.5411L51.4295 15.535Z"
                fill="black"
              />
              <path
                d="M52.2889 17.991V15.2487H52.7339V18.0018C52.7339 18.3961 52.861 18.713 53.1154 18.9518C53.3697 19.1911 53.7049 19.3153 54.121 19.3153C54.5372 19.3153 54.8666 19.1962 55.1209 18.9575C55.3752 18.7181 55.5023 18.4013 55.5023 18.0069V15.2436H55.9589V17.9858C55.9589 18.5055 55.7913 18.921 55.4503 19.2327C55.1093 19.5439 54.6643 19.7051 54.1095 19.7051C53.5546 19.7051 53.1154 19.5496 52.7802 19.2327C52.445 18.9159 52.2773 18.5004 52.2773 17.9858L52.2889 17.991Z"
                fill="black"
              />
              <path
                d="M59.4594 18.5012L57.5154 15.8729V19.3333H57.0664V15.2436H57.5837L59.4936 17.8623L61.3977 15.2436H61.8525V19.3333H61.4034V15.8729L59.4594 18.5012Z"
                fill="black"
              />
              <path
                d="M65.5332 18.5012L63.7387 15.8729V19.3333H63.3242V15.2436H63.8017L65.5647 17.8623L67.3224 15.2436H67.7421V19.3333H67.3276V15.8729L65.5332 18.5012Z"
                fill="black"
              />
              <path
                d="M69.2148 19.3333V15.2436H69.583V19.3333H69.2148Z"
                fill="black"
              />
              <path
                d="M73.6328 15.6021H72.3385V19.3333H71.9772V15.6021H70.6875V15.2436H73.6328V15.6021Z"
                fill="black"
              />
              <path
                d="M33.5039 26.7692V21.9359H34.3817V23.9274H34.813L36.082 21.9359H37.0752L35.5604 24.3095L37.1855 26.7692H36.1171L34.8532 24.8103H34.3917V26.7692H33.5039Z"
                fill="black"
              />
              <path
                d="M39.7579 21.9359C40.1075 21.9359 40.4404 21.9976 40.7622 22.1267C41.0784 22.2557 41.3558 22.4255 41.5833 22.6423C41.8163 22.8591 41.9994 23.1172 42.1326 23.4161C42.2713 23.7155 42.3378 24.0302 42.3378 24.3551C42.3378 24.68 42.2713 24.9947 42.1326 25.2942C41.9938 25.593 41.8107 25.846 41.5833 26.0628C41.3502 26.2791 41.0784 26.4494 40.7622 26.5785C40.4459 26.7075 40.1075 26.7692 39.7579 26.7692C39.4084 26.7692 39.0755 26.7075 38.7593 26.5785C38.443 26.4494 38.1656 26.2791 37.9381 26.0628C37.7051 25.846 37.5276 25.593 37.3889 25.2942C37.2557 24.9947 37.1836 24.6851 37.1836 24.3551C37.1836 23.9165 37.3001 23.514 37.5276 23.1427C37.7551 22.7714 38.0713 22.4776 38.4652 22.2608C38.8591 22.044 39.2919 21.9359 39.7579 21.9359ZM39.7579 25.8664C40.1852 25.8664 40.5513 25.717 40.8509 25.4227C41.1505 25.1289 41.3059 24.7729 41.3059 24.3551C41.3059 23.9374 41.1561 23.5763 40.8509 23.2819C40.5458 22.9882 40.1852 22.8382 39.7579 22.8382C39.3307 22.8382 38.9701 22.9882 38.6705 23.2819C38.3709 23.5763 38.2211 23.9374 38.2211 24.3551C38.2211 24.7729 38.3709 25.1289 38.6761 25.4227C38.9812 25.717 39.3418 25.8664 39.7635 25.8664H39.7579Z"
                fill="black"
              />
              <path
                d="M43.0796 26.7639V21.9359H44.7816C45.3472 21.9359 45.8008 22.0757 46.1422 22.3554C46.4837 22.635 46.6544 23.0002 46.6544 23.4627C46.6544 23.7907 46.5637 24.0703 46.3876 24.3122C46.2116 24.554 45.9608 24.7316 45.6406 24.8496L46.7558 26.7692H45.6727L44.6962 24.9953H44.008V26.7692H43.0742L43.0796 26.7639ZM44.8563 22.7636H44.0133V24.1511H44.8563C45.1018 24.1511 45.2992 24.0862 45.4486 23.9576C45.598 23.8284 45.6727 23.6615 45.6727 23.452C45.6727 23.242 45.598 23.0757 45.4486 22.9518C45.2992 22.8285 45.1018 22.7636 44.8563 22.7636Z"
                fill="black"
              />
              <path
                d="M47.4922 26.7692V21.9359H50.3716V22.8188H48.3793V23.8896H50.255V24.7778H48.3793V25.8757H50.4375V26.7692H47.4922Z"
                fill="black"
              />
              <path
                d="M54.8747 26.7692L54.4466 25.682H52.2614L51.8222 26.7692H50.8047L52.8119 21.9359H53.9462L55.9589 26.7692H54.8747ZM54.1074 24.8422L53.3401 22.9263L52.5784 24.8422H54.1074Z"
                fill="black"
              />
              <path
                d="M50.1775 1.11536H45.2852V12.2692H48.0732V8.98048H50.1775C52.356 8.98048 54.121 7.2226 54.121 5.04797C54.121 2.87318 52.356 1.11536 50.1775 1.11536ZM50.0927 6.49975H48.0679V3.70718H50.0927C50.7764 3.70718 51.3276 4.33532 51.3276 5.10601C51.3276 5.8767 50.7711 6.50496 50.0927 6.50496V6.49975Z"
                fill="black"
              />
              <path
                d="M37.1208 1.11536L32.7656 12.2692H35.9316L36.6081 10.3318H40.699L41.3755 12.2692H44.5467L40.1915 1.11536H37.1208ZM37.4749 7.85625L38.6588 4.46733L39.8427 7.85625H37.4749Z"
                fill="black"
              />
              <path
                d="M58.4376 7.90374H62.898V5.42805H58.4376V3.70718H63.1737V1.11536H55.5938V12.2692H63.3251V9.67205H58.4376V7.90374Z"
                fill="black"
              />
              <path
                d="M72.1595 8.54041C71.5186 9.21339 70.812 9.58879 69.744 9.58879C67.9419 9.58879 66.6437 8.27431 66.6437 6.50661C66.6437 4.73851 67.9473 3.419 69.744 3.419C70.812 3.419 71.4693 3.75801 72.154 4.45164L73.9835 2.43856C73.003 1.33811 71.5132 0.743591 69.744 0.743591C66.3096 0.743591 63.6914 3.23651 63.6914 6.50661C63.6914 9.77648 66.3096 12.2692 69.744 12.2692C71.5624 12.2692 72.9427 11.6855 73.9999 10.4701L72.1595 8.54041Z"
                fill="black"
              />
              <path
                d="M12.2284 12.4019C12.2923 11.9953 12.3361 11.7615 12.3361 11.7615C12.3361 11.7615 11.2248 8.91188 9.94857 6.22834C9.19086 4.62907 8.37929 3.08738 7.70578 2.23014C6.57093 0.779938 6.90433 0.929024 5.17004 0.624078C4.79964 0.559698 1.00445 0.834153 1.00781 0.854483C1.50621 3.38217 2.03154 5.90648 2.58718 8.42398L3.62437 12.9914C3.99142 14.5568 4.3686 16.1189 4.75921 17.6775C4.99495 18.6126 5.24415 19.5614 5.48659 20.4932C5.64824 21.1098 5.82334 21.757 6.25438 22.228C7.17036 23.2309 8.7699 23.031 10.0967 22.7498C10.4772 22.6685 10.8813 22.5736 11.1373 22.2822C11.4673 21.9061 11.4336 21.3402 11.3966 20.8388C11.3158 19.7376 11.501 17.691 11.7367 15.8241C11.9118 14.4382 12.1105 13.1439 12.225 12.4053L12.2284 12.4019Z"
                fill="#66C76B"
              />
              <path
                d="M12.5151 17.0473C11.3533 16.8779 10.5384 16.7424 10.5384 16.7424C10.5384 16.7424 8.05315 17.7318 5.54102 18.9143C3.78317 19.741 2.60453 20.5474 1.665 21.2929C0.223705 22.4381 0.371877 22.0993 0.0721691 23.8477C0.00818646 24.2204 0.190033 27.7815 0.210238 27.7781C3.44978 27.1276 6.08655 26.5448 9.30589 25.7993C10.7068 25.474 12.1043 25.1386 13.4984 24.7998C14.832 24.4745 16.1621 24.139 17.4923 23.7968C18.0345 23.6579 18.5766 23.519 19.1188 23.3767C19.7317 23.2141 20.3749 23.0379 20.843 22.6042C21.8397 21.6825 21.7387 20.3306 21.4592 18.9956C21.3784 18.6127 21.2841 18.2061 20.9945 17.9486C20.6207 17.6165 20.0583 17.6504 19.5599 17.6877C18.745 17.7487 17.4081 17.6538 16.0106 17.5047C14.7882 17.3726 13.522 17.1998 12.5151 17.0541"
                fill="#866EBD"
              />
              <path
                d="M18.3524 21.7461C19.2381 23.6876 20.2719 25.7579 21.0936 26.8015C22.2318 28.2517 21.895 28.1026 23.6327 28.4042C24.0031 28.4685 27.7982 28.1873 27.7949 28.1636C27.2191 25.2666 26.6028 22.373 25.9528 19.4929L24.8786 14.878C24.5217 13.3905 24.1546 11.9064 23.7775 10.4223C23.6192 9.79889 23.4609 9.17208 23.2993 8.54861C23.1376 7.93196 22.9625 7.28477 22.5315 6.81378C21.6155 5.81087 20.0159 6.01078 18.6891 6.29201C18.3086 6.37332 17.9045 6.4682 17.6486 6.75958C17.3186 7.13568 17.3522 7.70152 17.3893 8.20299C17.4499 9.0196 17.3556 10.3478 17.2108 11.7438C17.0829 12.9433 16.9179 14.1868 16.7731 15.1931C16.5979 16.4129 16.4531 17.2803 16.4531 17.2803C16.4531 17.2803 17.295 19.4217 18.3524 21.7427V21.7461Z"
                fill="#EF3F52"
              />
              <path
                d="M10.0781 5.0424C9.95343 5.07627 9.82885 5.10676 9.70426 5.13724C9.09135 5.29991 8.44818 5.4761 7.9801 5.9098C6.98331 6.8314 7.182 8.44087 7.46151 9.77587C7.54232 10.1587 7.6366 10.5653 7.9262 10.8228C8.29999 11.1549 8.86239 11.121 9.36077 11.0838C10.0713 11.0329 11.1725 11.0973 12.3646 11.2125C13.5196 11.3277 14.7555 11.487 15.8096 11.6361C17.2744 11.8428 18.3789 12.0257 18.3789 12.0257C18.3789 12.0257 20.2445 11.2938 22.3795 10.3248C24.4304 9.39638 26.7236 8.26467 27.8417 7.37694C29.2829 6.23508 29.1348 6.57051 29.4379 4.82553C29.5018 4.45281 29.2291 0.634188 29.2089 0.637575C25.9895 1.28136 22.7803 1.96918 19.5778 2.70445L15.1933 3.74465C13.486 4.16143 11.7753 4.59851 10.0713 5.03902L10.0781 5.0424Z"
                fill="#F9B12A"
              />
              <path
                d="M3.63496 12.9804C4.25121 12.7737 4.89442 12.2011 5.02913 10.3815C5.10655 9.36166 4.19735 8.54505 2.82339 8.43325C2.74257 8.42648 2.66512 8.41968 2.58767 8.41629C1.33159 8.32141 0.119282 8.79578 0.0115224 10.1444C-0.102973 11.5742 0.641249 12.7059 2.00172 12.9295C2.5944 13.0278 3.15004 13.143 3.63496 12.9838V12.9804Z"
                fill="#66C76B"
              />
              <path
                d="M13.5015 24.7968C13.1008 24.4681 12.6395 24.0954 11.9761 24.0412C10.6021 23.9294 9.43698 24.0175 9.32248 25.4507C9.31236 25.5659 9.30901 25.6811 9.30901 25.7997C9.29215 27.1279 9.78717 28.4799 11.0399 28.6866C12.3869 28.9102 13.5554 29.2321 14.0673 26.1419C14.1548 25.6235 13.9292 25.1492 13.5015 24.8002V24.7968Z"
                fill="#866EBD"
              />
              <path
                d="M15.4618 3.59919C15.7346 4.20571 16.1892 4.66313 16.8728 4.77492C18.1693 4.99179 19.3008 5.30012 19.8463 2.55897C19.8665 2.45394 19.8867 2.3489 19.9069 2.2337C20.0753 1.22398 19.2974 0.143103 17.9235 0.0279007C16.5495 -0.0873022 15.2833 0.105832 15.1655 1.5357C15.1082 2.24725 15.1924 2.99607 15.4618 3.5958V3.59919Z"
                fill="#F9B12A"
              />
              <path
                d="M24.9731 15.4147C24.303 15.4892 23.3567 16.3363 23.2827 17.2478C23.1682 18.6777 24.1313 19.7179 25.4918 19.9415C25.6803 19.972 25.8656 20.0058 26.044 20.0296C27.1519 20.1854 28.078 20.0533 28.5191 17.3935C28.6875 16.3837 27.8961 15.3876 26.5222 15.2758C26.0204 15.2351 25.3571 15.3706 24.9731 15.4113V15.4147Z"
                fill="#EF3F52"
              />
              <path
                d="M21.4589 18.9879C21.378 18.6051 21.2837 18.1985 20.9941 17.941C20.6204 17.6089 20.058 17.6428 19.5596 17.6801C18.8524 17.7309 17.7546 17.6665 16.5625 17.5513C16.8218 18.1985 17.5189 19.913 18.354 21.7426C18.5998 22.2848 18.8592 22.8337 19.1184 23.3691C19.7313 23.2064 20.3745 23.0302 20.8392 22.5965C21.836 21.6749 21.735 20.3229 21.4555 18.9879H21.4589Z"
                fill="#844755"
              />
              <path
                d="M22.5339 6.81815C21.6179 5.8152 20.0184 6.01511 18.6916 6.29634C18.311 6.37769 17.9069 6.47253 17.651 6.76394C17.321 7.14005 17.3547 7.70588 17.3917 8.20736C17.4523 9.02393 17.358 10.3522 17.2132 11.7482C17.2099 11.7786 17.2065 11.8125 17.2031 11.843C17.9238 11.9514 18.3851 12.0294 18.3851 12.0294C18.3851 12.0294 20.2507 11.2975 22.3857 10.3285C22.7898 10.1455 23.2007 9.95573 23.6115 9.76262C23.5071 9.35941 23.4061 8.95619 23.3017 8.55298C23.14 7.93629 22.9649 7.28914 22.5339 6.81815Z"
                fill="#D2441F"
              />
              <path
                d="M5.03127 10.3872C5.10873 9.36732 4.19952 8.55075 2.82557 8.43891C2.74475 8.43215 2.6673 8.42538 2.58984 8.422L3.62704 12.9894H3.63377C4.25004 12.7827 4.89321 12.2101 5.02792 10.3906L5.03127 10.3872Z"
                fill="#40964C"
              />
              <path
                d="M9.32597 25.4502C9.31585 25.5655 9.3125 25.6807 9.3125 25.7992C10.7134 25.474 12.1075 25.1419 13.505 24.7997C13.1043 24.471 12.6429 24.0983 11.9796 24.0441C10.6056 23.9323 9.44044 24.0204 9.32597 25.4537V25.4502Z"
                fill="#6A5596"
              />
              <path
                d="M16.8706 4.77354C18.1536 4.98699 19.2716 5.28855 19.8239 2.64905C19.743 2.66599 19.6622 2.68632 19.5848 2.70326L15.5 3.67232C15.7761 4.24158 16.2206 4.66509 16.8739 4.77354H16.8706Z"
                fill="#DF7A10"
              />
              <path
                d="M23.2866 17.2475C23.1721 18.6774 24.1352 19.7176 25.4957 19.9413C25.6842 19.9718 25.8695 20.0056 26.0479 20.0293C26.058 20.0293 26.0648 20.0293 26.0715 20.0293C26.0311 19.8498 25.9907 19.6702 25.9503 19.4906L25.0006 15.4077C25.0006 15.4077 24.9804 15.4077 24.9703 15.4111C24.3002 15.4856 23.3539 16.3327 23.2798 17.2442L23.2866 17.2475Z"
                fill="#C72840"
              />
              <path
                d="M7.46541 9.77452C7.54623 10.1574 7.64051 10.564 7.93014 10.8215C8.30393 11.1536 8.8663 11.1197 9.36467 11.0824C10.0214 11.035 11.0181 11.0858 12.1092 11.1875C11.7219 10.2218 10.8801 8.18201 9.95064 6.22358C9.78898 5.87796 9.62062 5.53914 9.45561 5.20367C8.92355 5.34938 8.3881 5.53234 7.984 5.90845C6.98721 6.83009 7.18591 8.43952 7.46541 9.77452Z"
                fill="#648249"
              />
              <path
                d="M6.25367 22.2247C7.16961 23.2276 8.76919 23.0277 10.096 22.7464C10.4765 22.6651 10.8806 22.5703 11.1365 22.2789C11.4665 21.9028 11.4329 21.3369 11.3958 20.8355C11.3318 19.9477 11.4396 18.4399 11.608 16.9118C10.9513 16.8101 10.5371 16.7424 10.5371 16.7424C10.5371 16.7424 8.05191 17.7318 5.53974 18.9143C5.39829 18.982 5.26023 19.0464 5.12891 19.1142C5.25014 19.575 5.36799 20.0358 5.48922 20.4932C5.65088 21.1099 5.82598 21.7571 6.25702 22.2281L6.25367 22.2247Z"
                fill="#475965"
              />
            </svg>